Noor.ufo
<glyph name="exclam" format="1">
  <advance width="190"/>
  <unicode hex="0021"/>
  <outline>
    <contour>
      <point x="115" y="174" type="line"/>
      <point x="145" y="700" type="line"/>
      <point x="43" y="700" type="line"/>
      <point x="75" y="174" type="line"/>
    </contour>
    <component base="period"/>
  </outline>
</glyph>
<glyph name="dollar" format="1">
  <advance width="556"/>
  <unicode hex="0024"/>
  <outline>
    <contour>
      <point x="278" y="-110" type="line"/>
      <point x="318" y="-110" type="line"/>
      <point x="318" y="800" type="line"/>
      <point x="278" y="800" type="line"/>
    </contour>
    <component base="S" xOffset="10"/>
  </outline>
</glyph>
<glyph name="quotesingle" format="1">
  <advance width="181"/>
  <unicode hex="0027"/>
  <outline>
    <contour>
      <point x="30" y="632"/>
      <point x="53" y="609"/>
      <point x="79" y="609" type="curve" smooth="yes"/>
      <point x="93" y="609"/>
      <point x="105" y="616"/>
      <point x="109" y="603" type="curve" smooth="yes"/>
      <point x="114" y="590"/>
      <point x="107" y="538"/>
      <point x="35" y="520" type="curve"/>
      <point x="44" y="500" type="line"/>
      <point x="100" y="504"/>
      <point x="151" y="552"/>
      <point x="151" y="629" type="curve" smooth="yes"/>
      <point x="151" y="683"/>
      <point x="117" y="711"/>
      <point x="82" y="710" type="curve" smooth="yes"/>
      <point x="53" y="709"/>
      <point x="30" y="688"/>
      <point x="30" y="659" type="curve" smooth="yes"/>
    </contour>
  </outline>
</glyph>
<glyph name="parenleft" format="1">
  <advance width="308"/>
  <unicode hex="0028"/>
  <outline>
    <contour>
      <point x="145" y="636"/>
      <point x="60" y="461"/>
      <point x="60" y="272" type="curve" smooth="yes"/>
      <point x="60" y="70"/>
      <point x="145" y="-108"/>
      <point x="273" y="-174" type="curve"/>
      <point x="288" y="-152" type="line"/>
      <point x="207" y="-85"/>
      <point x="153" y="101"/>
      <point x="153" y="314" type="curve" smooth="yes"/>
      <point x="153" y="467"/>
      <point x="207" y="618"/>
      <point x="288" y="690" type="curve"/>
      <point x="273" y="710" type="line"/>
    </contour>
  </outline>
</glyph>
<glyph name="comma" format="1">
  <advance width="217"/>
  <unicode hex="002C"/>
  <outline>
    <contour>
      <point x="35" y="17"/>
      <point x="62" y="-10"/>
      <point x="94" y="-10" type="curve" smooth="yes"/>
      <point x="110" y="-10"/>
      <point x="128" y="-2"/>
      <point x="133" y="-17" type="curve" smooth="yes"/>
      <point x="139" y="-33"/>
      <point x="127" y="-98"/>
      <point x="66" y="-119" type="curve"/>
      <point x="75" y="-139" type="line"/>
      <point x="118" y="-134"/>
      <point x="177" y="-78"/>
      <point x="177" y="13" type="curve" smooth="yes"/>
      <point x="177" y="77"/>
      <point x="139" y="111"/>
      <point x="97" y="110" type="curve" smooth="yes"/>
      <point x="62" y="109"/>
      <point x="35" y="83"/>
      <point x="35" y="50" type="curve" smooth="yes"/>
    </contour>
  </outline>
</glyph>
<glyph name="period" format="1">
  <advance width="190"/>
  <unicode hex="002E"/>
  <outline>
    <contour>
      <point x="125" y="-10"/>
      <point x="150" y="14"/>
      <point x="150" y="45" type="curve" smooth="yes"/>
      <point x="150" y="75"/>
      <point x="125" y="100"/>
      <point x="95" y="100" type="curve" smooth="yes"/>
      <point x="65" y="100"/>
      <point x="40" y="75"/>
      <point x="40" y="45" type="curve" smooth="yes"/>
      <point x="40" y="14"/>
      <point x="65" y="-10"/>
      <point x="95" y="-10" type="curve" smooth="yes"/>
    </contour>
  </outline>
</glyph>
<glyph name="zero" format="1">
  <advance width="597"/>
  <unicode hex="0030"/>
  <outline>
    <contour>
      <point x="433" y="709"/>
      <point x="299" y="709" type="curve" smooth="yes"/>
      <point x="164" y="709"/>
      <point x="50" y="545"/>
      <point x="50" y="346" type="curve" smooth="yes"/>
      <point x="50" y="144"/>
      <point x="166" y="-10"/>
      <point x="297" y="-10" type="curve" smooth="yes"/>
      <point x="427" y="-10"/>
      <point x="547" y="142"/>
      <point x="547" y="347" type="curve" smooth="yes"/>
      <point x="547" y="547"/>
    </contour>
    <contour>
      <point x="202" y="674"/>
      <point x="284" y="674" type="curve" smooth="yes"/>
      <point x="395" y="674"/>
      <point x="450" y="467"/>
      <point x="450" y="305" type="curve" smooth="yes"/>
      <point x="450" y="144"/>
      <point x="393" y="25"/>
      <point x="306" y="25" type="curve" smooth="yes"/>
      <point x="193" y="25"/>
      <point x="147" y="230"/>
      <point x="147" y="389" type="curve" smooth="yes"/>
      <point x="147" y="560"/>
    </contour>
  </outline>
</glyph>
<glyph name="one" format="1">
  <advance width="431"/>
  <unicode hex="0031"/>
  <outline>
    <contour>
      <point x="286" y="20" type="line"/>
      <point x="286" y="680" type="line"/>
      <point x="176" y="610" type="line"/>
      <point x="176" y="20" type="line"/>
    </contour>
    <contour>
      <point x="70" y="510" type="line"/>
      <point x="286" y="676" type="line"/>
      <point x="286" y="710" type="line"/>
      <point x="256" y="710" type="line"/>
      <point x="181" y="636"/>
      <point x="111" y="569"/>
      <point x="55" y="530" type="curve"/>
    </contour>
    <contour>
      <point x="186" y="0"/>
      <point x="212" y="4"/>
      <point x="232" y="4" type="curve"/>
      <point x="252" y="4"/>
      <point x="276" y="0"/>
      <point x="296" y="0" type="curve"/>
      <point x="371" y="0" type="line"/>
      <point x="371" y="20" type="line"/>
      <point x="311" y="29" type="line" smooth="yes"/>
      <point x="296" y="31"/>
      <point x="286" y="43"/>
      <point x="286" y="58" type="curve"/>
      <point x="176" y="58" type="line"/>
      <point x="176" y="42"/>
      <point x="166" y="31"/>
      <point x="151" y="29" type="curve" smooth="yes"/>
      <point x="81" y="20" type="line"/>
      <point x="81" y="0" type="line"/>
      <point x="166" y="0" type="line"/>
    </contour>
  </outline>
</glyph>
<glyph name="two" format="1">
  <advance width="600"/>
  <unicode hex="0032"/>
  <outline>
    <contour>
      <point x="259" y="710"/>
      <point x="160" y="634"/>
      <point x="90" y="520" type="curve"/>
      <point x="105" y="500" type="line"/>
      <point x="170" y="585"/>
      <point x="252" y="636"/>
      <point x="307" y="636" type="curve" smooth="yes"/>
      <point x="364" y="636"/>
      <point x="418" y="593"/>
      <point x="418" y="520" type="curve" smooth="yes"/>
      <point x="418" y="391"/>
      <point x="270" y="217"/>
      <point x="88" y="12" type="curve"/>
      <point x="88" y="0" type="line"/>
      <point x="105" y="0" type="line"/>
      <point x="337" y="202"/>
      <point x="538" y="394"/>
      <point x="538" y="556" type="curve" smooth="yes"/>
      <point x="538" y="648"/>
      <point x="474" y="710"/>
      <point x="362" y="710" type="curve" smooth="yes"/>
    </contour>
    <contour>
      <point x="541" y="0" type="line"/>
      <point x="568" y="168" type="line"/>
      <point x="548" y="171" type="line"/>
      <point x="525" y="120" type="line" smooth="yes"/>
      <point x="517" y="102"/>
      <point x="502" y="90"/>
      <point x="488" y="90" type="curve" smooth="yes"/>
      <point x="196" y="87" type="line"/>
      <point x="100" y="0" type="line"/>
      <point x="195" y="0" type="line"/>
    </contour>
  </outline>
</glyph>
<glyph name="three" format="1">
  <advance width="600"/>
  <unicode hex="0033"/>
  <outline>
    <contour>
      <point x="228" y="710"/>
      <point x="151" y="665"/>
      <point x="80" y="550" type="curve"/>
      <point x="95" y="530" type="line"/>
      <point x="166" y="622"/>
      <point x="227" y="646"/>
      <point x="281" y="646" type="curve" smooth="yes"/>
      <point x="329" y="646"/>
      <point x="398" y="617"/>
      <point x="398" y="505" type="curve" smooth="yes"/>
      <point x="398" y="443"/>
      <point x="369" y="381"/>
      <point x="276" y="377" type="curve" smooth="yes"/>
      <point x="228" y="375" type="line"/>
      <point x="228" y="355" type="line"/>
      <point x="264" y="355" type="line" smooth="yes"/>
      <point x="354" y="355"/>
      <point x="508" y="439"/>
      <point x="508" y="565" type="curve" smooth="yes"/>
      <point x="508" y="652"/>
      <point x="445" y="710"/>
      <point x="335" y="710" type="curve" smooth="yes"/>
    </contour>
    <contour>
      <point x="346" y="373"/>
      <point x="306" y="362"/>
      <point x="260" y="355" type="curve"/>
      <point x="367" y="355"/>
      <point x="448" y="269"/>
      <point x="448" y="177" type="curve" smooth="yes"/>
      <point x="448" y="83"/>
      <point x="387" y="20"/>
      <point x="296" y="20" type="curve" smooth="yes"/>
      <point x="243" y="20"/>
      <point x="178" y="67"/>
      <point x="132" y="138" type="curve"/>
      <point x="76" y="81" type="line"/>
      <point x="118" y="29"/>
      <point x="190" y="-10"/>
      <point x="317" y="-10" type="curve" smooth="yes"/>
      <point x="454" y="-10"/>
      <point x="558" y="79"/>
      <point x="558" y="207" type="curve" smooth="yes"/>
      <point x="558" y="322"/>
      <point x="478" y="398"/>
      <point x="358" y="398" type="curve"/>
    </contour>
  </outline>
</glyph>
<glyph name="four" format="1">
  <advance width="520"/>
  <unicode hex="0034"/>
  <outline>
    <contour>
      <point x="415" y="20" type="line"/>
      <point x="415" y="691" type="line"/>
      <point x="305" y="561" type="line"/>
      <point x="305" y="20" type="line"/>
    </contour>
    <contour>
      <point x="415" y="710" type="line"/>
      <point x="383" y="710" type="line"/>
      <point x="30" y="278" type="line" smooth="yes"/>
      <point x="30" y="236" type="line"/>
      <point x="59" y="256" type="line"/>
      <point x="415" y="687" type="line"/>
    </contour>
    <contour>
      <point x="30" y="254" type="line"/>
      <point x="30" y="215" type="line"/>
      <point x="488" y="215" type="line"/>
      <point x="488" y="285" type="line"/>
      <point x="80" y="285" type="line"/>
    </contour>
    <component base="SerifCaps" xOffset="230"/>
  </outline>
</glyph>
<glyph name="five" format="1">
  <advance width="561"/>
  <unicode hex="0035"/>
  <outline>
    <contour>
      <point x="105" y="24"/>
      <point x="194" y="-10"/>
      <point x="251" y="-10" type="curve" smooth="yes"/>
      <point x="354" y="-10"/>
      <point x="507" y="53"/>
      <point x="507" y="242" type="curve" smooth="yes"/>
      <point x="507" y="382"/>
      <point x="418" y="440"/>
      <point x="298" y="440" type="curve" smooth="yes"/>
      <point x="217" y="440"/>
      <point x="175" y="413"/>
      <point x="101" y="357" type="curve"/>
      <point x="121" y="322" type="line"/>
      <point x="160" y="372"/>
      <point x="188" y="396"/>
      <point x="242" y="396" type="curve" smooth="yes"/>
      <point x="327" y="396"/>
      <point x="414" y="336"/>
      <point x="414" y="196" type="curve" smooth="yes"/>
      <point x="414" y="71"/>
      <point x="345" y="25"/>
      <point x="272" y="25" type="curve" smooth="yes"/>
      <point x="206" y="25"/>
      <point x="140" y="80"/>
      <point x="101" y="143" type="curve"/>
      <point x="50" y="68" type="line"/>
    </contour>
    <contour>
      <point x="121" y="322" type="line"/>
      <point x="137" y="382" type="line"/>
      <point x="137" y="620" type="line"/>
      <point x="467" y="620" type="line"/>
      <point x="467" y="700" type="line"/>
      <point x="81" y="700" type="line"/>
      <point x="81" y="322" type="line"/>
    </contour>
  </outline>
</glyph>
<glyph name="six" format="1">
  <advance width="594"/>
  <unicode hex="0036"/>
  <outline>
    <contour>
      <point x="153" y="123"/>
      <point x="215" y="25"/>
      <point x="308" y="25" type="curve" smooth="yes"/>
      <point x="368" y="25"/>
      <point x="441" y="71"/>
      <point x="441" y="187" type="curve" smooth="yes"/>
      <point x="441" y="325"/>
      <point x="354" y="386"/>
      <point x="269" y="386" type="curve" smooth="yes"/>
      <point x="224" y="386"/>
      <point x="183" y="360"/>
      <point x="138" y="302" type="curve"/>
      <point x="128" y="337" type="line"/>
      <point x="191" y="394"/>
      <point x="253" y="430"/>
      <point x="325" y="430" type="curve" smooth="yes"/>
      <point x="445" y="430"/>
      <point x="534" y="372"/>
      <point x="534" y="232" type="curve" smooth="yes"/>
      <point x="534" y="53"/>
      <point x="392" y="-10"/>
      <point x="277" y="-10" type="curve" smooth="yes"/>
      <point x="147" y="-10"/>
      <point x="60" y="88"/>
      <point x="60" y="234" type="curve" smooth="yes"/>
      <point x="60" y="456"/>
      <point x="213" y="646"/>
      <point x="442" y="710" type="curve"/>
      <point x="462" y="689" type="line"/>
      <point x="277" y="608"/>
      <point x="153" y="450"/>
      <point x="153" y="269" type="curve" smooth="yes"/>
    </contour>
  </outline>
</glyph>
<glyph name="seven" format="1">
  <advance width="581"/>
  <unicode hex="0037"/>
  <outline>
    <contour>
      <point x="77" y="700" type="line"/>
      <point x="50" y="542" type="line"/>
      <point x="70" y="539" type="line"/>
      <point x="93" y="590" type="line" smooth="yes"/>
      <point x="101" y="608"/>
      <point x="116" y="620"/>
      <point x="130" y="620" type="curve" smooth="yes"/>
      <point x="452" y="620" type="line"/>
      <point x="518" y="700" type="line"/>
      <point x="423" y="700" type="line"/>
    </contour>
    <contour>
      <point x="151" y="0" type="line"/>
      <point x="261" y="0" type="line"/>
      <point x="531" y="700" type="line"/>
      <point x="481" y="700" type="line"/>
    </contour>
  </outline>
</glyph>
<glyph name="eight" format="1">
  <advance width="590"/>
  <unicode hex="0038"/>
  <outline>
    <contour>
      <point x="80" y="59"/>
      <point x="163" y="-10"/>
      <point x="287" y="-10" type="curve" smooth="yes"/>
      <point x="423" y="-10"/>
      <point x="514" y="74"/>
      <point x="514" y="201" type="curve" smooth="yes"/>
      <point x="514" y="287"/>
      <point x="466" y="340"/>
      <point x="373" y="391" type="curve"/>
      <point x="437" y="440"/>
      <point x="480" y="510"/>
      <point x="480" y="565" type="curve" smooth="yes"/>
      <point x="480" y="652"/>
      <point x="406" y="710"/>
      <point x="295" y="710" type="curve" smooth="yes"/>
      <point x="170" y="710"/>
      <point x="87" y="640"/>
      <point x="87" y="534" type="curve" smooth="yes"/>
      <point x="87" y="448"/>
      <point x="147" y="404"/>
      <point x="200" y="359" type="curve"/>
      <point x="130" y="316"/>
      <point x="80" y="233"/>
      <point x="80" y="162" type="curve" smooth="yes"/>
    </contour>
    <contour>
      <point x="155" y="236"/>
      <point x="193" y="303"/>
      <point x="245" y="334" type="curve"/>
      <point x="359" y="288"/>
      <point x="432" y="207"/>
      <point x="432" y="142" type="curve" smooth="yes"/>
      <point x="432" y="72"/>
      <point x="377" y="25"/>
      <point x="294" y="25" type="curve" smooth="yes"/>
      <point x="211" y="25"/>
      <point x="155" y="86"/>
      <point x="155" y="177" type="curve" smooth="yes"/>
    </contour>
    <contour>
      <point x="160" y="633"/>
      <point x="211" y="675"/>
      <point x="287" y="675" type="curve" smooth="yes"/>
      <point x="357" y="675"/>
      <point x="404" y="631"/>
      <point x="404" y="564" type="curve" smooth="yes"/>
      <point x="404" y="512"/>
      <point x="372" y="451"/>
      <point x="325" y="411" type="curve"/>
      <point x="247" y="462"/>
      <point x="160" y="502"/>
      <point x="160" y="570" type="curve" smooth="yes"/>
    </contour>
  </outline>
</glyph>
<glyph name="question" format="1">
  <advance width="409"/>
  <unicode hex="003F"/>
  <outline>
    <contour>
      <point x="117" y="710"/>
      <point x="77" y="700"/>
      <point x="35" y="680" type="curve"/>
      <point x="77" y="585" type="line"/>
      <point x="110" y="624"/>
      <point x="138" y="675"/>
      <point x="163" y="675" type="curve" smooth="yes"/>
      <point x="221" y="675"/>
      <point x="279" y="594"/>
      <point x="279" y="516" type="curve" smooth="yes"/>
      <point x="279" y="319"/>
      <point x="108" y="367"/>
      <point x="128" y="154" type="curve"/>
      <point x="168" y="154" type="line"/>
      <point x="153" y="364"/>
      <point x="374" y="309"/>
      <point x="374" y="543" type="curve" smooth="yes"/>
      <point x="374" y="678"/>
      <point x="252" y="710"/>
      <point x="198" y="710" type="curve" smooth="yes"/>
    </contour>
    <component base="period" xOffset="58"/>
  </outline>
</glyph>
<glyph name="at" format="1">
  <advance width="839"/>
  <unicode hex="0040"/>
  <outline>
    <contour>
      <point x="471" y="402" type="line" smooth="yes"/>
      <point x="471" y="443"/>
      <point x="447" y="457"/>
      <point x="407" y="456" type="curve" smooth="yes"/>
      <point x="372" y="456"/>
      <point x="334" y="447"/>
      <point x="306" y="422" type="curve"/>
      <point x="293" y="441" type="line"/>
      <point x="333" y="483"/>
      <point x="395" y="510"/>
      <point x="457" y="510" type="curve" smooth="yes"/>
      <point x="511" y="510"/>
      <point x="551" y="487"/>
      <point x="551" y="446" type="curve" smooth="yes"/>
      <point x="551" y="245" type="line" smooth="yes"/>
      <point x="551" y="218"/>
      <point x="581" y="210"/>
      <point x="603" y="210" type="curve" smooth="yes"/>
      <point x="687" y="210"/>
      <point x="743" y="286"/>
      <point x="743" y="400" type="curve"/>
      <point x="813" y="400" type="line"/>
      <point x="813" y="257"/>
      <point x="715" y="161"/>
      <point x="587" y="161" type="curve" smooth="yes"/>
      <point x="504" y="161"/>
      <point x="471" y="181"/>
      <point x="471" y="212" type="curve" smooth="yes"/>
    </contour>
    <contour>
      <point x="477" y="339" type="line"/>
      <point x="409" y="318" type="line" smooth="yes"/>
      <point x="377" y="308"/>
      <point x="360" y="284"/>
      <point x="360" y="258" type="curve" smooth="yes"/>
      <point x="360" y="234"/>
      <point x="370" y="207"/>
      <point x="397" y="207" type="curve" smooth="yes"/>
      <point x="431" y="207"/>
      <point x="466" y="225"/>
      <point x="481" y="233" type="curve"/>
      <point x="481" y="201" type="line"/>
      <point x="399" y="162" type="line"/>
      <point x="322" y="162"/>
      <point x="279" y="184"/>
      <point x="279" y="239" type="curve" smooth="yes"/>
      <point x="279" y="289"/>
      <point x="316" y="322"/>
      <point x="371" y="338" type="curve" smooth="yes"/>
      <point x="477" y="370" type="line"/>
    </contour>
    <contour>
      <point x="586" y="-86"/>
      <point x="513" y="-108"/>
      <point x="435" y="-108" type="curve" smooth="yes"/>
      <point x="209" y="-108"/>
      <point x="26" y="75"/>
      <point x="26" y="301" type="curve" smooth="yes"/>
      <point x="26" y="526"/>
      <point x="209" y="709"/>
      <point x="435" y="709" type="curve" smooth="yes"/>
      <point x="660" y="709"/>
      <point x="813" y="566"/>
      <point x="813" y="400" type="curve"/>
      <point x="743" y="400" type="line"/>
      <point x="743" y="531"/>
      <point x="605" y="645"/>
      <point x="435" y="645" type="curve" smooth="yes"/>
      <point x="245" y="645"/>
      <point x="96" y="491"/>
      <point x="96" y="301" type="curve" smooth="yes"/>
      <point x="96" y="111"/>
      <point x="245" y="-43"/>
      <point x="435" y="-43" type="curve" smooth="yes"/>
      <point x="501" y="-43"/>
      <point x="563" y="-25"/>
      <point x="615" y="7" type="curve"/>
      <point x="649" y="-48" type="line"/>
    </contour>
  </outline>
</glyph>
<glyph name="A" format="1">
  <advance width="795"/>
  <unicode hex="0041"/>
  <outline>
    <contour>
      <point x="412" y="709" type="line"/>
      <point x="379" y="709" type="line"/>
      <point x="109" y="53" type="line"/>
      <point x="159" y="53" type="line"/>
      <point x="377" y="582" type="line"/>
      <point x="354" y="582" type="line"/>
      <point x="570" y="58" type="line"/>
      <point x="685" y="58" type="line"/>
    </contour>
    <contour>
      <point x="68" y="0"/>
      <point x="103" y="5"/>
      <point x="122" y="5" type="curve"/>
      <point x="142" y="5"/>
      <point x="177" y="0"/>
      <point x="206" y="0" type="curve"/>
      <point x="240" y="0" type="line"/>
      <point x="240" y="20" type="line"/>
      <point x="182" y="27" type="line" smooth="yes"/>
      <point x="163" y="29"/>
      <point x="152" y="35"/>
      <point x="159" y="53" type="curve"/>
      <point x="109" y="53" type="line"/>
      <point x="102" y="37"/>
      <point x="83" y="30"/>
      <point x="64" y="27" type="curve" smooth="yes"/>
      <point x="25" y="20" type="line"/>
      <point x="25" y="0" type="line"/>
      <point x="39" y="0" type="line"/>
    </contour>
    <contour>
      <point x="770" y="0" type="line"/>
      <point x="770" y="20" type="line"/>
      <point x="720" y="29" type="line"/>
      <point x="706" y="33"/>
      <point x="692" y="44"/>
      <point x="685" y="58" type="curve"/>
      <point x="570" y="58" type="line"/>
      <point x="575" y="46"/>
      <point x="565" y="34"/>
      <point x="545" y="29" type="curve"/>
      <point x="485" y="20" type="line"/>
      <point x="485" y="0" type="line"/>
      <point x="560" y="0" type="line"/>
      <point x="580" y="0"/>
      <point x="604" y="4"/>
      <point x="624" y="4" type="curve"/>
      <point x="644" y="4"/>
      <point x="675" y="0"/>
      <point x="695" y="0" type="curve"/>
    </contour>
    <contour>
      <point x="214" y="219" type="line"/>
      <point x="539" y="219" type="line"/>
      <point x="539" y="259" type="line"/>
      <point x="214" y="259" type="line"/>
    </contour>
  </outline>
</glyph>
<glyph name="B" format="1">
  <advance width="639"/>
  <unicode hex="0042"/>
  <outline>
    <contour>
      <point x="95" y="0" type="line" smooth="yes"/>
      <point x="115" y="0"/>
      <point x="155" y="4"/>
      <point x="175" y="4" type="curve" smooth="yes"/>
      <point x="195" y="4"/>
      <point x="234" y="0"/>
      <point x="255" y="0" type="curve" smooth="yes"/>
      <point x="347" y="0" type="line" smooth="yes"/>
      <point x="452" y="0"/>
      <point x="577" y="79"/>
      <point x="577" y="206" type="curve" smooth="yes"/>
      <point x="577" y="323"/>
      <point x="475" y="377"/>
      <point x="360" y="377" type="curve" smooth="yes"/>
      <point x="207" y="377" type="line"/>
      <point x="207" y="347" type="line"/>
      <point x="262" y="347" type="line" smooth="yes"/>
      <point x="414" y="347"/>
      <point x="472" y="288"/>
      <point x="472" y="178" type="curve" smooth="yes"/>
      <point x="472" y="100"/>
      <point x="418" y="34"/>
      <point x="327" y="34" type="curve" smooth="yes"/>
      <point x="245" y="34" type="line" smooth="yes"/>
      <point x="233" y="34"/>
      <point x="225" y="42"/>
      <point x="225" y="54" type="curve"/>
      <point x="125" y="54" type="line"/>
      <point x="125" y="42"/>
      <point x="115" y="33"/>
      <point x="100" y="30" type="curve" smooth="yes"/>
      <point x="50" y="20" type="line"/>
      <point x="50" y="0" type="line"/>
    </contour>
    <contour>
      <point x="225" y="20" type="line"/>
      <point x="225" y="680" type="line"/>
      <point x="125" y="680" type="line"/>
      <point x="125" y="20" type="line"/>
    </contour>
    <contour>
      <point x="299" y="353" type="line" smooth="yes"/>
      <point x="442" y="353"/>
      <point x="531" y="432"/>
      <point x="531" y="558" type="curve" smooth="yes"/>
      <point x="531" y="643"/>
      <point x="457" y="700"/>
      <point x="342" y="700" type="curve" smooth="yes"/>
      <point x="255" y="700" type="line" smooth="yes"/>
      <point x="235" y="700"/>
      <point x="195" y="696"/>
      <point x="175" y="696" type="curve" smooth="yes"/>
      <point x="155" y="696"/>
      <point x="115" y="700"/>
      <point x="95" y="700" type="curve" smooth="yes"/>
      <point x="50" y="700" type="line"/>
      <point x="50" y="680" type="line"/>
      <point x="100" y="671" type="line" smooth="yes"/>
      <point x="115" y="667"/>
      <point x="125" y="656"/>
      <point x="125" y="642" type="curve"/>
      <point x="225" y="666" type="line"/>
      <point x="288" y="666" type="line" smooth="yes"/>
      <point x="375" y="666"/>
      <point x="432" y="615"/>
      <point x="432" y="522" type="curve" smooth="yes"/>
      <point x="432" y="446"/>
      <point x="380" y="381"/>
      <point x="303" y="381" type="curve" smooth="yes"/>
      <point x="216" y="381" type="line"/>
      <point x="216" y="353" type="line"/>
    </contour>
  </outline>
</glyph>
<glyph name="C" format="1">
  <advance width="727"/>
  <unicode hex="0043"/>
  <outline>
    <contour>
      <point x="539" y="670"/>
      <point x="579" y="638"/>
      <point x="647" y="496" type="curve"/>
      <point x="667" y="496" type="line"/>
      <point x="650" y="624" type="line"/>
      <point x="601" y="676"/>
      <point x="510" y="710"/>
      <point x="422" y="710" type="curve" smooth="yes"/>
      <point x="207" y="710"/>
      <point x="64" y="565"/>
      <point x="64" y="348" type="curve" smooth="yes"/>
      <point x="64" y="133"/>
      <point x="203" y="-10"/>
      <point x="411" y="-10" type="curve" smooth="yes"/>
      <point x="506" y="-10"/>
      <point x="602" y="26"/>
      <point x="650" y="81" type="curve"/>
      <point x="667" y="209" type="line"/>
      <point x="647" y="209" type="line"/>
      <point x="581" y="71"/>
      <point x="544" y="30"/>
      <point x="432" y="30" type="curve" smooth="yes"/>
      <point x="283" y="30"/>
      <point x="183" y="177"/>
      <point x="183" y="398" type="curve" smooth="yes"/>
      <point x="183" y="561"/>
      <point x="270" y="670"/>
      <point x="401" y="670" type="curve" smooth="yes"/>
    </contour>
  </outline>
</glyph>
<glyph name="D" format="1">
  <advance width="797"/>
  <unicode hex="0044"/>
  <outline>
    <contour>
      <point x="235" y="20" type="line"/>
      <point x="235" y="680" type="line"/>
      <point x="125" y="680" type="line"/>
      <point x="125" y="20" type="line"/>
    </contour>
    <contour>
      <point x="245" y="700" type="line"/>
      <point x="225" y="700"/>
      <point x="199" y="696"/>
      <point x="179" y="696" type="curve"/>
      <point x="159" y="696"/>
      <point x="135" y="700"/>
      <point x="115" y="700" type="curve"/>
      <point x="50" y="700" type="line"/>
      <point x="50" y="680" type="line"/>
      <point x="100" y="671" type="line"/>
      <point x="116" y="667"/>
      <point x="125" y="661"/>
      <point x="125" y="642" type="curve"/>
      <point x="235" y="660" type="line"/>
      <point x="341" y="660" type="line" smooth="yes"/>
      <point x="508" y="660"/>
      <point x="614" y="495"/>
      <point x="614" y="316" type="curve" smooth="yes"/>
      <point x="614" y="150"/>
      <point x="539" y="40"/>
      <point x="392" y="40" type="curve" smooth="yes"/>
      <point x="265" y="40" type="line" smooth="yes"/>
      <point x="247" y="40"/>
      <point x="235" y="52"/>
      <point x="235" y="69" type="curve"/>
      <point x="125" y="59" type="line"/>
      <point x="125" y="45"/>
      <point x="115" y="33"/>
      <point x="100" y="29" type="curve" smooth="yes"/>
      <point x="50" y="20" type="line"/>
      <point x="50" y="0" type="line"/>
      <point x="115" y="0" type="line" smooth="yes"/>
      <point x="135" y="0"/>
      <point x="159" y="4"/>
      <point x="179" y="4" type="curve" smooth="yes"/>
      <point x="199" y="4"/>
      <point x="225" y="0"/>
      <point x="245" y="0" type="curve" smooth="yes"/>
      <point x="402" y="0" type="line" smooth="yes"/>
      <point x="593" y="0"/>
      <point x="731" y="185"/>
      <point x="727" y="372" type="curve" smooth="yes"/>
      <point x="727" y="553"/>
      <point x="600" y="700"/>
      <point x="413" y="700" type="curve" smooth="yes"/>
    </contour>
  </outline>
</glyph>
<glyph name="E" format="1">
  <advance width="658"/>
  <unicode hex="0045"/>
  <outline>
    <contour>
      <point x="225" y="20" type="line"/>
      <point x="225" y="680" type="line"/>
      <point x="125" y="680" type="line"/>
      <point x="125" y="20" type="line"/>
    </contour>
    <contour>
      <point x="255" y="700" type="line" smooth="yes"/>
      <point x="235" y="700"/>
      <point x="195" y="696"/>
      <point x="175" y="696" type="curve" smooth="yes"/>
      <point x="155" y="696"/>
      <point x="115" y="700"/>
      <point x="95" y="700" type="curve" smooth="yes"/>
      <point x="50" y="700" type="line"/>
      <point x="50" y="680" type="line"/>
      <point x="100" y="671" type="line" smooth="yes"/>
      <point x="116" y="668"/>
      <point x="125" y="661"/>
      <point x="125" y="642" type="curve"/>
      <point x="225" y="666" type="line"/>
      <point x="398" y="666" type="line" smooth="yes"/>
      <point x="444" y="666"/>
      <point x="483" y="649"/>
      <point x="498" y="611" type="curve" smooth="yes"/>
      <point x="518" y="559" type="line"/>
      <point x="538" y="560" type="line"/>
      <point x="525" y="700" type="line"/>
    </contour>
    <contour>
      <point x="541" y="0" type="line"/>
      <point x="578" y="168" type="line"/>
      <point x="558" y="171" type="line"/>
      <point x="518" y="97" type="line" smooth="yes"/>
      <point x="498" y="59"/>
      <point x="460" y="34"/>
      <point x="422" y="34" type="curve" smooth="yes"/>
      <point x="255" y="34" type="line" smooth="yes"/>
      <point x="237" y="34"/>
      <point x="225" y="46"/>
      <point x="225" y="64" type="curve"/>
      <point x="125" y="58" type="line"/>
      <point x="125" y="44"/>
      <point x="120" y="33"/>
      <point x="100" y="29" type="curve" smooth="yes"/>
      <point x="50" y="20" type="line"/>
      <point x="50" y="0" type="line"/>
      <point x="95" y="0" type="line" smooth="yes"/>
      <point x="115" y="0"/>
      <point x="155" y="4"/>
      <point x="175" y="4" type="curve" smooth="yes"/>
      <point x="195" y="4"/>
      <point x="235" y="0"/>
      <point x="255" y="0" type="curve" smooth="yes"/>
    </contour>
    <contour>
      <point x="418" y="342" type="line" smooth="yes"/>
      <point x="437" y="342"/>
      <point x="443" y="333"/>
      <point x="446" y="317" type="curve" smooth="yes"/>
      <point x="456" y="267" type="line"/>
      <point x="476" y="267" type="line"/>
      <point x="475" y="322" type="line" smooth="yes"/>
      <point x="475" y="337"/>
      <point x="472" y="347"/>
      <point x="472" y="359" type="curve" smooth="yes"/>
      <point x="472" y="372"/>
      <point x="476" y="381"/>
      <point x="476" y="396" type="curve" smooth="yes"/>
      <point x="476" y="451" type="line"/>
      <point x="456" y="451" type="line"/>
      <point x="447" y="401" type="line" smooth="yes"/>
      <point x="443" y="381"/>
      <point x="432" y="376"/>
      <point x="418" y="376" type="curve" smooth="yes"/>
      <point x="199" y="376" type="line"/>
      <point x="199" y="342" type="line"/>
    </contour>
  </outline>
</glyph>
<glyph name="F" format="1">
  <advance width="600"/>
  <unicode hex="0046"/>
  <outline>
    <contour>
      <point x="235" y="20" type="line"/>
      <point x="235" y="680" type="line"/>
      <point x="125" y="680" type="line"/>
      <point x="125" y="20" type="line"/>
    </contour>
    <contour>
      <point x="546" y="569" type="line"/>
      <point x="566" y="569" type="line"/>
      <point x="566" y="700" type="line"/>
      <point x="245" y="700" type="line"/>
      <point x="225" y="700"/>
      <point x="199" y="696"/>
      <point x="179" y="696" type="curve"/>
      <point x="159" y="696"/>
      <point x="135" y="700"/>
      <point x="115" y="700" type="curve"/>
      <point x="50" y="700" type="line"/>
      <point x="50" y="680" type="line"/>
      <point x="100" y="671" type="line"/>
      <point x="116" y="667"/>
      <point x="125" y="661"/>
      <point x="125" y="642" type="curve"/>
      <point x="235" y="660" type="line"/>
      <point x="512" y="660" type="line"/>
      <point x="520" y="660"/>
      <point x="528" y="652"/>
      <point x="532" y="640" type="curve"/>
    </contour>
    <contour>
      <point x="209" y="339" type="line"/>
      <point x="458" y="339" type="line"/>
      <point x="458" y="379" type="line"/>
      <point x="209" y="379" type="line"/>
    </contour>
    <contour>
      <point x="515" y="337"/>
      <point x="512" y="346"/>
      <point x="512" y="359" type="curve" smooth="yes"/>
      <point x="512" y="371"/>
      <point x="516" y="385"/>
      <point x="516" y="399" type="curve"/>
      <point x="516" y="454" type="line"/>
      <point x="496" y="454" type="line"/>
      <point x="487" y="404" type="line"/>
      <point x="483" y="388"/>
      <point x="477" y="379"/>
      <point x="458" y="379" type="curve"/>
      <point x="458" y="339" type="line"/>
      <point x="477" y="339"/>
      <point x="482" y="330"/>
      <point x="487" y="314" type="curve"/>
      <point x="496" y="264" type="line"/>
      <point x="516" y="264" type="line"/>
      <point x="515" y="319" type="line"/>
    </contour>
    <component base="SerifCaps" xOffset="50"/>
  </outline>
</glyph>
<glyph name="G" format="1">
  <advance width="770"/>
  <unicode hex="0047"/>
  <outline>
    <contour>
      <point x="451" y="300" type="line"/>
      <point x="451" y="280" type="line"/>
      <point x="511" y="269" type="line"/>
      <point x="538" y="264"/>
      <point x="557" y="252"/>
      <point x="557" y="241" type="curve"/>
      <point x="667" y="242" type="line"/>
      <point x="666" y="256"/>
      <point x="675" y="268"/>
      <point x="688" y="271" type="curve"/>
      <point x="718" y="279" type="line"/>
      <point x="718" y="299" type="line"/>
      <point x="676" y="300" type="line"/>
      <point x="653" y="300"/>
      <point x="640" y="296"/>
      <point x="606" y="296" type="curve" smooth="yes"/>
      <point x="576" y="296"/>
      <point x="567" y="299"/>
      <point x="546" y="299" type="curve"/>
    </contour>
    <contour>
      <point x="505" y="668"/>
      <point x="583" y="634"/>
      <point x="606" y="583" type="curve" smooth="yes"/>
      <point x="654" y="473" type="line"/>
      <point x="674" y="476" type="line"/>
      <point x="647" y="634" type="line"/>
      <point x="598" y="686"/>
      <point x="518" y="710"/>
      <point x="419" y="710" type="curve"/>
      <point x="219" y="710"/>
      <point x="70" y="542"/>
      <point x="70" y="326" type="curve" smooth="yes"/>
      <point x="70" y="126"/>
      <point x="197" y="-10"/>
      <point x="392" y="-10" type="curve" smooth="yes"/>
      <point x="494" y="-10"/>
      <point x="600" y="27"/>
      <point x="682" y="100" type="curve"/>
      <point x="682" y="115" type="line"/>
      <point x="673" y="115"/>
      <point x="667" y="121"/>
      <point x="667" y="131" type="curve" smooth="yes"/>
      <point x="667" y="244" type="line"/>
      <point x="557" y="244" type="line"/>
      <point x="557" y="73" type="line"/>
      <point x="536" y="58"/>
      <point x="491" y="39"/>
      <point x="435" y="39" type="curve" smooth="yes"/>
      <point x="307" y="39"/>
      <point x="189" y="140"/>
      <point x="189" y="362" type="curve" smooth="yes"/>
      <point x="189" y="509"/>
      <point x="241" y="668"/>
      <point x="411" y="668" type="curve" smooth="yes"/>
    </contour>
  </outline>
</glyph>
<glyph name="H" format="1">
  <advance width="910"/>
  <unicode hex="0048"/>
  <outline>
    <contour>
      <point x="209" y="339" type="line"/>
      <point x="727" y="339" type="line"/>
      <point x="727" y="379" type="line"/>
      <point x="209" y="379" type="line"/>
    </contour>
    <contour>
      <point x="255" y="10" type="line"/>
      <point x="255" y="690" type="line"/>
      <point x="145" y="690" type="line"/>
      <point x="145" y="10" type="line"/>
    </contour>
    <contour>
      <point x="765" y="10" type="line"/>
      <point x="765" y="690" type="line"/>
      <point x="655" y="690" type="line"/>
      <point x="655" y="10" type="line"/>
    </contour>
    <contour>
      <point x="245" y="699"/>
      <point x="219" y="695"/>
      <point x="199" y="695" type="curve"/>
      <point x="179" y="695"/>
      <point x="155" y="699"/>
      <point x="135" y="699" type="curve"/>
      <point x="70" y="699" type="line"/>
      <point x="70" y="679" type="line"/>
      <point x="120" y="670" type="line"/>
      <point x="136" y="666"/>
      <point x="145" y="660"/>
      <point x="145" y="641" type="curve"/>
      <point x="255" y="641" type="line"/>
      <point x="255" y="660"/>
      <point x="264" y="666"/>
      <point x="280" y="670" type="curve"/>
      <point x="330" y="679" type="line"/>
      <point x="330" y="699" type="line"/>
      <point x="265" y="699" type="line"/>
    </contour>
    <contour>
      <point x="755" y="699"/>
      <point x="729" y="695"/>
      <point x="709" y="695" type="curve"/>
      <point x="689" y="695"/>
      <point x="665" y="699"/>
      <point x="645" y="699" type="curve"/>
      <point x="580" y="699" type="line"/>
      <point x="580" y="679" type="line"/>
      <point x="630" y="670" type="line"/>
      <point x="646" y="666"/>
      <point x="655" y="660"/>
      <point x="655" y="641" type="curve"/>
      <point x="765" y="641" type="line"/>
      <point x="765" y="660"/>
      <point x="774" y="666"/>
      <point x="790" y="670" type="curve"/>
      <point x="840" y="679" type="line"/>
      <point x="840" y="699" type="line"/>
      <point x="775" y="699" type="line"/>
    </contour>
    <component base="SerifCaps" xOffset="70"/>
    <component base="SerifCaps" xOffset="580"/>
  </outline>
</glyph>
<glyph name="I" format="1">
  <advance width="350"/>
  <unicode hex="0049"/>
  <outline>
    <contour>
      <point x="225" y="20" type="line"/>
      <point x="225" y="680" type="line"/>
      <point x="125" y="680" type="line"/>
      <point x="125" y="20" type="line"/>
    </contour>
    <contour>
      <point x="235" y="700"/>
      <point x="195" y="696"/>
      <point x="175" y="696" type="curve" smooth="yes"/>
      <point x="155" y="696"/>
      <point x="115" y="700"/>
      <point x="95" y="700" type="curve" smooth="yes"/>
      <point x="50" y="700" type="line"/>
      <point x="50" y="680" type="line"/>
      <point x="100" y="671" type="line" smooth="yes"/>
      <point x="116" y="668"/>
      <point x="125" y="661"/>
      <point x="125" y="642" type="curve"/>
      <point x="225" y="642" type="line"/>
      <point x="225" y="661"/>
      <point x="234" y="668"/>
      <point x="250" y="671" type="curve" smooth="yes"/>
      <point x="300" y="680" type="line"/>
      <point x="300" y="700" type="line"/>
      <point x="255" y="700" type="line" smooth="yes"/>
    </contour>
    <contour>
      <point x="115" y="0"/>
      <point x="155" y="4"/>
      <point x="175" y="4" type="curve" smooth="yes"/>
      <point x="195" y="4"/>
      <point x="235" y="0"/>
      <point x="255" y="0" type="curve" smooth="yes"/>
      <point x="300" y="0" type="line"/>
      <point x="300" y="20" type="line"/>
      <point x="250" y="30" type="line" smooth="yes"/>
      <point x="230" y="34"/>
      <point x="225" y="44"/>
      <point x="225" y="58" type="curve"/>
      <point x="125" y="58" type="line"/>
      <point x="125" y="44"/>
      <point x="120" y="34"/>
      <point x="100" y="30" type="curve" smooth="yes"/>
      <point x="50" y="20" type="line"/>
      <point x="50" y="0" type="line"/>
      <point x="95" y="0" type="line" smooth="yes"/>
    </contour>
  </outline>
</glyph>
<glyph name="J" format="1">
  <advance width="360.0"/>
  <unicode hex="004A"/>
  <outline>
    <contour>
      <point x="225" y="700"/>
      <point x="199" y="696"/>
      <point x="179" y="696" type="curve"/>
      <point x="159" y="696"/>
      <point x="135" y="700"/>
      <point x="115" y="700" type="curve"/>
      <point x="50" y="700" type="line"/>
      <point x="50" y="680" type="line"/>
      <point x="100" y="671" type="line"/>
      <point x="116" y="667"/>
      <point x="125" y="661"/>
      <point x="125" y="642" type="curve"/>
      <point x="235" y="642" type="line"/>
      <point x="235" y="661"/>
      <point x="244" y="667"/>
      <point x="260" y="671" type="curve"/>
      <point x="310" y="680" type="line"/>
      <point x="310" y="700" type="line"/>
      <point x="245" y="700" type="line"/>
    </contour>
    <contour>
      <point x="43" y="-260" type="line"/>
      <point x="70" y="-247"/>
      <point x="235" y="-181"/>
      <point x="235" y="-31" type="curve" smooth="yes"/>
      <point x="235" y="680" type="line"/>
      <point x="125" y="680" type="line"/>
      <point x="125" y="-80" type="line" smooth="yes"/>
      <point x="125" y="-206"/>
      <point x="54" y="-227"/>
      <point x="29" y="-241" type="curve"/>
    </contour>
  </outline>
</glyph>
<glyph name="K" format="1">
  <advance width="791"/>
  <unicode hex="004B"/>
  <outline>
    <contour>
      <point x="217" y="315" type="line"/>
      <point x="225" y="315" type="line"/>
      <point x="225" y="357" type="line"/>
      <point x="217" y="357" type="line"/>
    </contour>
    <contour>
      <point x="235" y="10" type="line"/>
      <point x="235" y="690" type="line"/>
      <point x="125" y="690" type="line"/>
      <point x="125" y="10" type="line"/>
    </contour>
    <contour>
      <point x="225" y="700"/>
      <point x="199" y="696"/>
      <point x="179" y="696" type="curve"/>
      <point x="159" y="696"/>
      <point x="135" y="700"/>
      <point x="115" y="700" type="curve"/>
      <point x="50" y="700" type="line"/>
      <point x="50" y="680" type="line"/>
      <point x="100" y="671" type="line"/>
      <point x="116" y="667"/>
      <point x="125" y="661"/>
      <point x="125" y="642" type="curve"/>
      <point x="235" y="642" type="line"/>
      <point x="235" y="661"/>
      <point x="244" y="667"/>
      <point x="260" y="671" type="curve"/>
      <point x="310" y="680" type="line"/>
      <point x="310" y="700" type="line"/>
      <point x="245" y="700" type="line"/>
    </contour>
    <contour>
      <point x="335" y="387" type="line"/>
      <point x="246" y="341" type="line"/>
      <point x="464" y="91" type="line" smooth="yes"/>
      <point x="514" y="34"/>
      <point x="573" y="-11"/>
      <point x="634" y="-11" type="curve" smooth="yes"/>
      <point x="658" y="-11"/>
      <point x="710" y="-4"/>
      <point x="736" y="10" type="curve"/>
      <point x="721" y="36" type="line"/>
      <point x="694" y="26"/>
      <point x="647" y="42"/>
      <point x="594" y="101" type="curve" smooth="yes"/>
    </contour>
    <contour>
      <point x="296" y="341" type="line"/>
      <point x="568" y="646" type="line" smooth="yes"/>
      <point x="576" y="654"/>
      <point x="589" y="669"/>
      <point x="613" y="672" type="curve" smooth="yes"/>
      <point x="672" y="679" type="line"/>
      <point x="672" y="699" type="line"/>
      <point x="638" y="699" type="line" smooth="yes"/>
      <point x="609" y="699"/>
      <point x="574" y="694"/>
      <point x="555" y="694" type="curve" smooth="yes"/>
      <point x="535" y="694"/>
      <point x="500" y="699"/>
      <point x="471" y="699" type="curve" smooth="yes"/>
      <point x="447" y="699" type="line"/>
      <point x="447" y="679" type="line"/>
      <point x="495" y="672" type="line" smooth="yes"/>
      <point x="513" y="669"/>
      <point x="527" y="657"/>
      <point x="518" y="646" type="curve" smooth="yes"/>
      <point x="246" y="341" type="line"/>
    </contour>
    <component base="SerifCaps" xOffset="50"/>
  </outline>
</glyph>
<glyph name="L" format="1">
  <advance width="631"/>
  <unicode hex="004C"/>
  <outline>
    <contour>
      <point x="225" y="20" type="line"/>
      <point x="225" y="680" type="line"/>
      <point x="125" y="680" type="line"/>
      <point x="125" y="20" type="line"/>
    </contour>
    <contour>
      <point x="235" y="700"/>
      <point x="195" y="696"/>
      <point x="175" y="696" type="curve" smooth="yes"/>
      <point x="155" y="696"/>
      <point x="115" y="700"/>
      <point x="95" y="700" type="curve" smooth="yes"/>
      <point x="50" y="700" type="line"/>
      <point x="50" y="680" type="line"/>
      <point x="100" y="670" type="line" smooth="yes"/>
      <point x="120" y="666"/>
      <point x="125" y="654"/>
      <point x="125" y="640" type="curve"/>
      <point x="225" y="640" type="line"/>
      <point x="225" y="654"/>
      <point x="230" y="666"/>
      <point x="250" y="670" type="curve" smooth="yes"/>
      <point x="300" y="680" type="line"/>
      <point x="300" y="700" type="line"/>
      <point x="255" y="700" type="line" smooth="yes"/>
    </contour>
    <contour>
      <point x="551" y="0" type="line"/>
      <point x="588" y="168" type="line"/>
      <point x="568" y="171" type="line"/>
      <point x="528" y="97" type="line" smooth="yes"/>
      <point x="508" y="59"/>
      <point x="470" y="34"/>
      <point x="432" y="34" type="curve" smooth="yes"/>
      <point x="255" y="34" type="line" smooth="yes"/>
      <point x="237" y="34"/>
      <point x="225" y="46"/>
      <point x="225" y="64" type="curve"/>
      <point x="125" y="58" type="line"/>
      <point x="125" y="44"/>
      <point x="120" y="33"/>
      <point x="100" y="29" type="curve" smooth="yes"/>
      <point x="50" y="20" type="line"/>
      <point x="50" y="0" type="line"/>
      <point x="95" y="0" type="line" smooth="yes"/>
      <point x="115" y="0"/>
      <point x="155" y="4"/>
      <point x="175" y="4" type="curve" smooth="yes"/>
      <point x="195" y="4"/>
      <point x="235" y="0"/>
      <point x="255" y="0" type="curve" smooth="yes"/>
    </contour>
  </outline>
</glyph>
<glyph name="M" format="1">
  <advance width="998"/>
  <unicode hex="004D"/>
  <outline>
    <contour>
      <point x="230" y="20" type="line"/>
      <point x="230" y="680" type="line"/>
      <point x="213" y="680"/>
      <point x="197" y="680"/>
      <point x="180" y="680" type="curve"/>
      <point x="180" y="20" type="line"/>
    </contour>
    <contour>
      <point x="450" y="0" type="line"/>
      <point x="490" y="0" type="line"/>
      <point x="511" y="108" type="line"/>
      <point x="293" y="700" type="line"/>
      <point x="216" y="700" type="line"/>
      <point x="217" y="630" type="line"/>
    </contour>
    <contour>
      <point x="305" y="0" type="line"/>
      <point x="305" y="20" type="line"/>
      <point x="255" y="29" type="line"/>
      <point x="239" y="33"/>
      <point x="230" y="39"/>
      <point x="230" y="58" type="curve"/>
      <point x="180" y="58" type="line"/>
      <point x="180" y="39"/>
      <point x="171" y="33"/>
      <point x="155" y="29" type="curve"/>
      <point x="105" y="20" type="line"/>
      <point x="105" y="0" type="line"/>
      <point x="150" y="0" type="line"/>
      <point x="170" y="0"/>
      <point x="184" y="4"/>
      <point x="204" y="4" type="curve"/>
      <point x="224" y="4"/>
      <point x="240" y="0"/>
      <point x="260" y="0" type="curve"/>
    </contour>
    <contour>
      <point x="252" y="700" type="line"/>
      <point x="105" y="700" type="line"/>
      <point x="105" y="680" type="line"/>
      <point x="155" y="671" type="line"/>
      <point x="171" y="667"/>
      <point x="180" y="661"/>
      <point x="180" y="642" type="curve"/>
    </contour>
    <contour>
      <point x="823" y="21" type="line"/>
      <point x="823" y="671" type="line"/>
      <point x="723" y="671" type="line"/>
      <point x="723" y="21" type="line"/>
    </contour>
    <contour>
      <point x="723" y="700" type="line"/>
      <point x="723" y="643" type="line"/>
      <point x="823" y="643" type="line"/>
      <point x="823" y="662"/>
      <point x="832" y="669"/>
      <point x="848" y="672" type="curve" smooth="yes"/>
      <point x="898" y="681" type="line"/>
      <point x="898" y="700" type="line"/>
    </contour>
    <contour>
      <point x="723" y="700" type="line" smooth="yes"/>
      <point x="450" y="0" type="line"/>
      <point x="490" y="0" type="line"/>
      <point x="763" y="700" type="line"/>
    </contour>
    <component base="SerifCaps" xOffset="648" yOffset="1"/>
  </outline>
</glyph>
<glyph name="N" format="1">
  <advance width="820"/>
  <unicode hex="004E"/>
  <outline>
    <contour>
      <point x="170" y="20" type="line"/>
      <point x="170" y="680" type="line"/>
      <point x="153" y="680"/>
      <point x="137" y="680"/>
      <point x="120" y="680" type="curve"/>
      <point x="120" y="20" type="line"/>
    </contour>
    <contour>
      <point x="650" y="0" type="line"/>
      <point x="689" y="0" type="line"/>
      <point x="689" y="126" type="line"/>
      <point x="239" y="700" type="line"/>
      <point x="97" y="700" type="line"/>
    </contour>
    <contour>
      <point x="245" y="0" type="line"/>
      <point x="245" y="20" type="line"/>
      <point x="195" y="29" type="line"/>
      <point x="179" y="33"/>
      <point x="170" y="39"/>
      <point x="170" y="58" type="curve"/>
      <point x="120" y="58" type="line"/>
      <point x="120" y="39"/>
      <point x="111" y="33"/>
      <point x="95" y="29" type="curve"/>
      <point x="45" y="20" type="line"/>
      <point x="45" y="0" type="line"/>
      <point x="90" y="0" type="line"/>
      <point x="110" y="0"/>
      <point x="124" y="4"/>
      <point x="144" y="4" type="curve"/>
      <point x="164" y="4"/>
      <point x="180" y="0"/>
      <point x="200" y="0" type="curve"/>
    </contour>
    <contour>
      <point x="650" y="0" type="line"/>
      <point x="667" y="0"/>
      <point x="683" y="0"/>
      <point x="700" y="0" type="curve"/>
      <point x="700" y="683" type="line"/>
      <point x="650" y="683" type="line"/>
    </contour>
    <contour>
      <point x="710" y="700"/>
      <point x="694" y="696"/>
      <point x="674" y="696" type="curve"/>
      <point x="654" y="696"/>
      <point x="640" y="700"/>
      <point x="620" y="700" type="curve"/>
      <point x="575" y="700" type="line"/>
      <point x="575" y="680" type="line"/>
      <point x="625" y="671" type="line"/>
      <point x="641" y="667"/>
      <point x="650" y="661"/>
      <point x="650" y="642" type="curve"/>
      <point x="700" y="642" type="line"/>
      <point x="700" y="661"/>
      <point x="709" y="667"/>
      <point x="725" y="671" type="curve"/>
      <point x="775" y="680" type="line"/>
      <point x="775" y="700" type="line"/>
      <point x="730" y="700" type="line"/>
    </contour>
    <contour>
      <point x="172" y="700" type="line"/>
      <point x="45" y="700" type="line"/>
      <point x="45" y="680" type="line"/>
      <point x="95" y="671" type="line"/>
      <point x="111" y="667"/>
      <point x="120" y="661"/>
      <point x="120" y="642" type="curve"/>
    </contour>
  </outline>
</glyph>
<glyph name="O" format="1">
  <advance width="819"/>
  <unicode hex="004F"/>
  <outline>
    <contour>
      <point x="611" y="709"/>
      <point x="411" y="709" type="curve" smooth="yes"/>
      <point x="210" y="709"/>
      <point x="70" y="545"/>
      <point x="70" y="346" type="curve" smooth="yes"/>
      <point x="70" y="144"/>
      <point x="213" y="-10"/>
      <point x="408" y="-10" type="curve" smooth="yes"/>
      <point x="601" y="-10"/>
      <point x="749" y="142"/>
      <point x="749" y="348" type="curve" smooth="yes"/>
      <point x="749" y="546"/>
    </contour>
    <contour>
      <point x="257" y="670"/>
      <point x="379" y="670" type="curve" smooth="yes"/>
      <point x="550" y="670"/>
      <point x="640" y="460"/>
      <point x="640" y="294" type="curve" smooth="yes"/>
      <point x="640" y="136"/>
      <point x="559" y="28"/>
      <point x="434" y="28" type="curve" smooth="yes"/>
      <point x="262" y="28"/>
      <point x="180" y="231"/>
      <point x="180" y="399" type="curve" smooth="yes"/>
      <point x="180" y="562"/>
    </contour>
  </outline>
</glyph>
<glyph name="P" format="1">
  <advance width="651"/>
  <unicode hex="0050"/>
  <outline>
    <contour>
      <point x="235" y="20" type="line"/>
      <point x="235" y="680" type="line"/>
      <point x="125" y="680" type="line"/>
      <point x="125" y="20" type="line"/>
    </contour>
    <contour>
      <point x="449" y="611"/>
      <point x="449" y="501" type="curve" smooth="yes"/>
      <point x="449" y="402"/>
      <point x="423" y="335"/>
      <point x="299" y="335" type="curve" smooth="yes"/>
      <point x="291" y="335" type="line"/>
      <point x="299" y="295" type="line"/>
      <point x="319" y="295" type="line" smooth="yes"/>
      <point x="434" y="295"/>
      <point x="561" y="380"/>
      <point x="561" y="538" type="curve" smooth="yes"/>
      <point x="561" y="611"/>
      <point x="500" y="700"/>
      <point x="352" y="700" type="curve" smooth="yes"/>
      <point x="245" y="700" type="line"/>
      <point x="225" y="700"/>
      <point x="199" y="696"/>
      <point x="179" y="696" type="curve"/>
      <point x="159" y="696"/>
      <point x="135" y="700"/>
      <point x="115" y="700" type="curve"/>
      <point x="50" y="700" type="line"/>
      <point x="50" y="680" type="line"/>
      <point x="100" y="671" type="line"/>
      <point x="116" y="667"/>
      <point x="125" y="661"/>
      <point x="125" y="642" type="curve"/>
      <point x="235" y="660" type="line"/>
      <point x="274" y="660" type="line" smooth="yes"/>
      <point x="389" y="660"/>
    </contour>
    <contour>
      <point x="340" y="0" type="line"/>
      <point x="340" y="20" type="line"/>
      <point x="280" y="29" type="line"/>
      <point x="253" y="35"/>
      <point x="235" y="47"/>
      <point x="235" y="58" type="curve"/>
      <point x="125" y="58" type="line"/>
      <point x="125" y="39"/>
      <point x="116" y="33"/>
      <point x="100" y="29" type="curve"/>
      <point x="50" y="20" type="line"/>
      <point x="50" y="0" type="line"/>
      <point x="115" y="0" type="line"/>
      <point x="135" y="0"/>
      <point x="159" y="4"/>
      <point x="179" y="4" type="curve"/>
      <point x="199" y="4"/>
      <point x="225" y="0"/>
      <point x="245" y="0" type="curve"/>
    </contour>
  </outline>
</glyph>
<glyph name="Q" format="1">
  <advance width="823"/>
  <unicode hex="0051"/>
  <outline>
    <contour>
      <point x="706" y="579"/>
      <point x="564" y="719"/>
      <point x="369" y="706" type="curve" smooth="yes"/>
      <point x="161" y="692"/>
      <point x="32" y="511"/>
      <point x="52" y="308" type="curve" smooth="yes"/>
      <point x="72" y="106"/>
      <point x="216" y="-20"/>
      <point x="411" y="-7" type="curve" smooth="yes"/>
      <point x="625" y="8"/>
      <point x="748" y="193"/>
      <point x="726" y="392" type="curve" smooth="yes"/>
    </contour>
    <contour>
      <point x="448" y="671"/>
      <point x="572" y="595"/>
      <point x="608" y="376" type="curve" smooth="yes"/>
      <point x="643" y="165"/>
      <point x="557" y="55"/>
      <point x="437" y="41" type="curve" smooth="yes"/>
      <point x="318" y="27"/>
      <point x="201" y="107"/>
      <point x="170" y="324" type="curve" smooth="yes"/>
      <point x="139" y="543"/>
      <point x="230" y="649"/>
      <point x="341" y="660" type="curve" smooth="yes"/>
    </contour>
    <contour>
      <point x="473" y="-17" type="line" smooth="yes"/>
      <point x="420" y="2"/>
      <point x="361" y="-2"/>
      <point x="336" y="-14" type="curve" smooth="yes"/>
      <point x="225" y="-66" type="line"/>
      <point x="241" y="-88" type="line"/>
      <point x="270" y="-74"/>
      <point x="329" y="-57"/>
      <point x="389" y="-78" type="curve" smooth="yes"/>
      <point x="565" y="-138" type="line" smooth="yes"/>
      <point x="620" y="-156"/>
      <point x="676" y="-146"/>
      <point x="717" y="-128" type="curve" smooth="yes"/>
      <point x="767" y="-104"/>
      <point x="781" y="-91"/>
      <point x="798" y="-71" type="curve"/>
      <point x="771" y="-61" type="line"/>
      <point x="751" y="-84"/>
      <point x="689" y="-96"/>
      <point x="627" y="-73" type="curve" smooth="yes"/>
    </contour>
  </outline>
</glyph>
<glyph name="R" format="1">
  <advance width="823"/>
  <unicode hex="0052"/>
  <outline>
    <contour>
      <point x="235" y="20" type="line"/>
      <point x="235" y="680" type="line"/>
      <point x="125" y="680" type="line"/>
      <point x="125" y="20" type="line"/>
    </contour>
    <contour>
      <point x="539" y="446"/>
      <point x="522" y="356"/>
      <point x="409" y="355" type="curve" smooth="yes"/>
      <point x="226" y="355" type="line"/>
      <point x="226" y="315" type="line"/>
      <point x="429" y="315" type="line" smooth="yes"/>
      <point x="524" y="316"/>
      <point x="651" y="410"/>
      <point x="651" y="538" type="curve" smooth="yes"/>
      <point x="651" y="611"/>
      <point x="610" y="700"/>
      <point x="462" y="700" type="curve" smooth="yes"/>
      <point x="245" y="700" type="line"/>
      <point x="225" y="700"/>
      <point x="199" y="696"/>
      <point x="179" y="696" type="curve"/>
      <point x="159" y="696"/>
      <point x="135" y="700"/>
      <point x="115" y="700" type="curve"/>
      <point x="50" y="700" type="line"/>
      <point x="50" y="680" type="line"/>
      <point x="100" y="671" type="line"/>
      <point x="116" y="667"/>
      <point x="125" y="661"/>
      <point x="125" y="642" type="curve"/>
      <point x="235" y="660" type="line"/>
      <point x="354" y="660" type="line" smooth="yes"/>
      <point x="467" y="660"/>
      <point x="526" y="610"/>
      <point x="533" y="524" type="curve" smooth="yes"/>
    </contour>
    <contour>
      <point x="571" y="250" type="line" smooth="yes"/>
      <point x="541" y="301"/>
      <point x="489" y="328"/>
      <point x="459" y="328" type="curve" smooth="yes"/>
      <point x="326" y="328" type="line"/>
      <point x="326" y="315" type="line"/>
      <point x="361" y="315"/>
      <point x="420" y="282"/>
      <point x="455" y="225" type="curve" smooth="yes"/>
      <point x="558" y="60" type="line" smooth="yes"/>
      <point x="590" y="9"/>
      <point x="644" y="-11"/>
      <point x="693" y="-11" type="curve" smooth="yes"/>
      <point x="752" y="-11"/>
      <point x="774" y="-3"/>
      <point x="803" y="10" type="curve"/>
      <point x="788" y="36" type="line"/>
      <point x="754" y="20"/>
      <point x="693" y="40"/>
      <point x="658" y="101" type="curve" smooth="yes"/>
    </contour>
    <component base="SerifCaps" xOffset="50"/>
  </outline>
</glyph>
<glyph name="S" format="1">
  <advance width="556"/>
  <unicode hex="0053"/>
  <outline>
    <contour>
      <point x="358" y="669"/>
      <point x="423" y="639"/>
      <point x="433" y="593" type="curve" smooth="yes"/>
      <point x="446" y="532" type="line"/>
      <point x="466" y="532" type="line"/>
      <point x="466" y="663" type="line"/>
      <point x="438" y="691"/>
      <point x="364" y="710"/>
      <point x="281" y="710" type="curve" smooth="yes"/>
      <point x="146" y="710"/>
      <point x="76" y="634"/>
      <point x="76" y="521" type="curve" smooth="yes"/>
      <point x="76" y="294"/>
      <point x="424" y="304"/>
      <point x="424" y="149" type="curve" smooth="yes"/>
      <point x="424" y="78"/>
      <point x="368" y="31"/>
      <point x="284" y="31" type="curve" smooth="yes"/>
      <point x="209" y="31"/>
      <point x="144" y="67"/>
      <point x="121" y="121" type="curve" smooth="yes"/>
      <point x="80" y="216" type="line"/>
      <point x="60" y="213" type="line"/>
      <point x="88" y="44" type="line"/>
      <point x="134" y="9"/>
      <point x="186" y="-10"/>
      <point x="256" y="-10" type="curve" smooth="yes"/>
      <point x="400" y="-10"/>
      <point x="496" y="68"/>
      <point x="496" y="186" type="curve" smooth="yes"/>
      <point x="496" y="437"/>
      <point x="149" y="405"/>
      <point x="149" y="550" type="curve" smooth="yes"/>
      <point x="149" y="621"/>
      <point x="197" y="669"/>
      <point x="270" y="669" type="curve" smooth="yes"/>
    </contour>
  </outline>
</glyph>
<glyph name="T" format="1">
  <advance width="702"/>
  <unicode hex="0054"/>
  <outline>
    <contour>
      <point x="406" y="20" type="line"/>
      <point x="406" y="680" type="line"/>
      <point x="296" y="680" type="line"/>
      <point x="296" y="20" type="line"/>
    </contour>
    <contour>
      <point x="647" y="569" type="line"/>
      <point x="667" y="569" type="line"/>
      <point x="667" y="700" type="line"/>
      <point x="416" y="700" type="line"/>
      <point x="305" y="700" type="line"/>
      <point x="306" y="660" type="line"/>
      <point x="613" y="660" type="line"/>
      <point x="621" y="660"/>
      <point x="629" y="652"/>
      <point x="633" y="640" type="curve"/>
    </contour>
    <contour>
      <point x="73" y="652"/>
      <point x="81" y="660"/>
      <point x="89" y="660" type="curve"/>
      <point x="396" y="660" type="line"/>
      <point x="397" y="700" type="line"/>
      <point x="286" y="700" type="line"/>
      <point x="35" y="700" type="line"/>
      <point x="35" y="569" type="line"/>
      <point x="55" y="569" type="line"/>
      <point x="69" y="640" type="line"/>
    </contour>
    <component base="SerifCaps" xOffset="221"/>
  </outline>
</glyph>
<glyph name="U" format="1">
  <advance width="830"/>
  <unicode hex="0055"/>
  <outline>
    <contour>
      <point x="695" y="703"/>
      <point x="679" y="699"/>
      <point x="659" y="699" type="curve"/>
      <point x="639" y="699"/>
      <point x="625" y="703"/>
      <point x="605" y="703" type="curve"/>
      <point x="560" y="703" type="line"/>
      <point x="560" y="683" type="line"/>
      <point x="610" y="674" type="line" smooth="yes"/>
      <point x="625" y="671"/>
      <point x="635" y="660"/>
      <point x="635" y="645" type="curve"/>
      <point x="685" y="645" type="line"/>
      <point x="685" y="660"/>
      <point x="695" y="671"/>
      <point x="710" y="674" type="curve" smooth="yes"/>
      <point x="760" y="683" type="line"/>
      <point x="760" y="703" type="line"/>
      <point x="715" y="703" type="line"/>
    </contour>
    <contour>
      <point x="225" y="700"/>
      <point x="199" y="696"/>
      <point x="179" y="696" type="curve"/>
      <point x="159" y="696"/>
      <point x="135" y="700"/>
      <point x="115" y="700" type="curve"/>
      <point x="50" y="700" type="line"/>
      <point x="50" y="680" type="line"/>
      <point x="100" y="671" type="line" smooth="yes"/>
      <point x="115" y="668"/>
      <point x="125" y="657"/>
      <point x="125" y="642" type="curve"/>
      <point x="235" y="642" type="line"/>
      <point x="235" y="657"/>
      <point x="245" y="668"/>
      <point x="260" y="671" type="curve" smooth="yes"/>
      <point x="310" y="680" type="line"/>
      <point x="310" y="700" type="line"/>
      <point x="245" y="700" type="line"/>
    </contour>
    <contour>
      <point x="685" y="683" type="line"/>
      <point x="635" y="683" type="line"/>
      <point x="635" y="201" type="line" smooth="yes"/>
      <point x="635" y="94"/>
      <point x="538" y="25"/>
      <point x="426" y="25" type="curve" smooth="yes"/>
      <point x="302" y="25"/>
      <point x="235" y="100"/>
      <point x="235" y="241" type="curve" smooth="yes"/>
      <point x="235" y="690" type="line"/>
      <point x="125" y="690" type="line"/>
      <point x="125" y="241" type="line" smooth="yes"/>
      <point x="125" y="80"/>
      <point x="239" y="-10"/>
      <point x="414" y="-10" type="curve" smooth="yes"/>
      <point x="575" y="-10"/>
      <point x="685" y="74"/>
      <point x="685" y="201" type="curve" smooth="yes"/>
    </contour>
  </outline>
</glyph>
<glyph name="V" format="1">
  <advance width="822"/>
  <unicode hex="0056"/>
  <outline>
    <contour>
      <point x="394" y="0" type="line"/>
      <point x="427" y="0" type="line"/>
      <point x="693" y="647" type="line"/>
      <point x="643" y="647" type="line"/>
      <point x="429" y="127" type="line"/>
      <point x="452" y="127" type="line"/>
      <point x="240" y="642" type="line"/>
      <point x="125" y="642" type="line"/>
    </contour>
    <contour>
      <point x="734" y="700"/>
      <point x="699" y="695"/>
      <point x="680" y="695" type="curve"/>
      <point x="660" y="695"/>
      <point x="625" y="700"/>
      <point x="596" y="700" type="curve"/>
      <point x="562" y="700" type="line"/>
      <point x="562" y="680" type="line"/>
      <point x="620" y="673" type="line" smooth="yes"/>
      <point x="639" y="671"/>
      <point x="650" y="665"/>
      <point x="643" y="647" type="curve"/>
      <point x="693" y="647" type="line"/>
      <point x="700" y="663"/>
      <point x="719" y="670"/>
      <point x="738" y="673" type="curve" smooth="yes"/>
      <point x="777" y="680" type="line"/>
      <point x="777" y="700" type="line"/>
      <point x="763" y="700" type="line"/>
    </contour>
    <contour>
      <point x="40" y="700" type="line"/>
      <point x="40" y="680" type="line"/>
      <point x="90" y="671" type="line" smooth="yes"/>
      <point x="105" y="668"/>
      <point x="118" y="656"/>
      <point x="125" y="642" type="curve"/>
      <point x="240" y="642" type="line"/>
      <point x="235" y="654"/>
      <point x="244" y="668"/>
      <point x="265" y="671" type="curve" smooth="yes"/>
      <point x="325" y="680" type="line"/>
      <point x="325" y="700" type="line"/>
      <point x="250" y="700" type="line"/>
      <point x="230" y="700"/>
      <point x="206" y="696"/>
      <point x="186" y="696" type="curve"/>
      <point x="166" y="696"/>
      <point x="135" y="700"/>
      <point x="115" y="700" type="curve"/>
    </contour>
  </outline>
</glyph>
<glyph name="W" format="1">
  <advance width="1176"/>
  <unicode hex="0057"/>
  <outline>
    <contour>
      <point x="486" y="680" type="line" smooth="yes"/>
      <point x="505" y="676"/>
      <point x="515" y="668"/>
      <point x="521" y="651" type="curve" smooth="yes"/>
      <point x="754" y="0" type="line"/>
      <point x="787" y="0" type="line"/>
      <point x="1037" y="656" type="line" smooth="yes"/>
      <point x="1043" y="671"/>
      <point x="1055" y="678"/>
      <point x="1082" y="682" type="curve" smooth="yes"/>
      <point x="1121" y="689" type="line"/>
      <point x="1121" y="709" type="line"/>
      <point x="1107" y="709" type="line" smooth="yes"/>
      <point x="1078" y="709"/>
      <point x="1043" y="704"/>
      <point x="1024" y="704" type="curve" smooth="yes"/>
      <point x="1004" y="704"/>
      <point x="969" y="709"/>
      <point x="940" y="709" type="curve" smooth="yes"/>
      <point x="886" y="709" type="line"/>
      <point x="886" y="689" type="line"/>
      <point x="964" y="682" type="line" smooth="yes"/>
      <point x="987" y="680"/>
      <point x="993" y="672"/>
      <point x="987" y="656" type="curve" smooth="yes"/>
      <point x="801" y="160" type="line"/>
      <point x="636" y="651" type="line" smooth="yes"/>
      <point x="630" y="668"/>
      <point x="637" y="676"/>
      <point x="661" y="680" type="curve" smooth="yes"/>
      <point x="731" y="689" type="line"/>
      <point x="731" y="709" type="line"/>
      <point x="646" y="709" type="line" smooth="yes"/>
      <point x="626" y="709"/>
      <point x="602" y="705"/>
      <point x="582" y="705" type="curve" smooth="yes"/>
      <point x="562" y="705"/>
      <point x="531" y="709"/>
      <point x="511" y="709" type="curve" smooth="yes"/>
      <point x="436" y="709" type="line"/>
      <point x="436" y="689" type="line"/>
    </contour>
    <contour>
      <point x="100" y="680" type="line" smooth="yes"/>
      <point x="118" y="676"/>
      <point x="128" y="668"/>
      <point x="135" y="651" type="curve" smooth="yes"/>
      <point x="388" y="0" type="line"/>
      <point x="421" y="0" type="line"/>
      <point x="628" y="543" type="line"/>
      <point x="579" y="544" type="line"/>
      <point x="435" y="158" type="line"/>
      <point x="250" y="651" type="line" smooth="yes"/>
      <point x="244" y="668"/>
      <point x="251" y="676"/>
      <point x="275" y="680" type="curve" smooth="yes"/>
      <point x="335" y="689" type="line"/>
      <point x="335" y="709" type="line"/>
      <point x="260" y="709" type="line" smooth="yes"/>
      <point x="240" y="709"/>
      <point x="216" y="705"/>
      <point x="196" y="705" type="curve" smooth="yes"/>
      <point x="176" y="705"/>
      <point x="145" y="709"/>
      <point x="125" y="709" type="curve" smooth="yes"/>
      <point x="50" y="709" type="line"/>
      <point x="50" y="689" type="line"/>
    </contour>
  </outline>
</glyph>
<glyph name="X" format="1">
  <advance width="788"/>
  <unicode hex="0058"/>
  <outline>
    <contour>
      <point x="135" y="700"/>
      <point x="166" y="696"/>
      <point x="186" y="696" type="curve"/>
      <point x="206" y="696"/>
      <point x="230" y="700"/>
      <point x="250" y="700" type="curve"/>
      <point x="325" y="700" type="line"/>
      <point x="325" y="680" type="line"/>
      <point x="265" y="671" type="line"/>
      <point x="245" y="666"/>
      <point x="235" y="654"/>
      <point x="240" y="642" type="curve"/>
      <point x="125" y="642" type="line"/>
      <point x="118" y="656"/>
      <point x="104" y="667"/>
      <point x="90" y="671" type="curve"/>
      <point x="40" y="680" type="line"/>
      <point x="40" y="700" type="line"/>
      <point x="115" y="700" type="line"/>
    </contour>
    <contour>
      <point x="125" y="642" type="line"/>
      <point x="240" y="642" type="line"/>
      <point x="658" y="58" type="line"/>
      <point x="543" y="58" type="line"/>
    </contour>
    <contour>
      <point x="576" y="647" type="line"/>
      <point x="583" y="665"/>
      <point x="572" y="669"/>
      <point x="553" y="673" type="curve"/>
      <point x="495" y="680" type="line"/>
      <point x="495" y="700" type="line"/>
      <point x="529" y="700" type="line" smooth="yes"/>
      <point x="558" y="700"/>
      <point x="593" y="695"/>
      <point x="613" y="695" type="curve" smooth="yes"/>
      <point x="632" y="695"/>
      <point x="667" y="700"/>
      <point x="696" y="700" type="curve" smooth="yes"/>
      <point x="710" y="700" type="line"/>
      <point x="710" y="680" type="line"/>
      <point x="671" y="673" type="line"/>
      <point x="652" y="668"/>
      <point x="633" y="663"/>
      <point x="626" y="647" type="curve"/>
      <point x="406" y="335" type="line"/>
      <point x="356" y="335" type="line"/>
    </contour>
    <contour>
      <point x="658" y="0"/>
      <point x="627" y="4"/>
      <point x="607" y="4" type="curve"/>
      <point x="587" y="4"/>
      <point x="563" y="0"/>
      <point x="543" y="0" type="curve"/>
      <point x="458" y="0" type="line"/>
      <point x="458" y="20" type="line"/>
      <point x="518" y="29" type="line" smooth="yes"/>
      <point x="538" y="32"/>
      <point x="548" y="51"/>
      <point x="543" y="58" type="curve"/>
      <point x="658" y="58" type="line"/>
      <point x="668" y="47"/>
      <point x="679" y="32"/>
      <point x="693" y="29" type="curve" smooth="yes"/>
      <point x="743" y="20" type="line"/>
      <point x="743" y="0" type="line"/>
      <point x="678" y="0" type="line"/>
    </contour>
    <contour>
      <point x="177" y="53" type="line"/>
      <point x="170" y="35"/>
      <point x="181" y="31"/>
      <point x="200" y="27" type="curve"/>
      <point x="258" y="20" type="line"/>
      <point x="258" y="0" type="line"/>
      <point x="224" y="0" type="line" smooth="yes"/>
      <point x="195" y="0"/>
      <point x="160" y="5"/>
      <point x="140" y="5" type="curve" smooth="yes"/>
      <point x="121" y="5"/>
      <point x="86" y="0"/>
      <point x="57" y="0" type="curve" smooth="yes"/>
      <point x="43" y="0" type="line"/>
      <point x="43" y="20" type="line"/>
      <point x="82" y="27" type="line"/>
      <point x="101" y="32"/>
      <point x="120" y="37"/>
      <point x="127" y="53" type="curve"/>
      <point x="347" y="365" type="line"/>
      <point x="397" y="365" type="line"/>
    </contour>
  </outline>
</glyph>
<glyph name="Y" format="1">
  <advance width="755"/>
  <unicode hex="0059"/>
  <outline>
    <contour>
      <point x="358" y="280" type="line"/>
      <point x="391" y="280" type="line"/>
      <point x="631" y="656" type="line"/>
      <point x="581" y="656" type="line"/>
      <point x="389" y="347" type="line"/>
      <point x="421" y="347" type="line"/>
      <point x="240" y="651" type="line"/>
      <point x="125" y="651" type="line"/>
    </contour>
    <contour>
      <point x="672" y="709"/>
      <point x="637" y="704"/>
      <point x="618" y="704" type="curve"/>
      <point x="598" y="704"/>
      <point x="563" y="709"/>
      <point x="534" y="709" type="curve"/>
      <point x="500" y="709" type="line"/>
      <point x="500" y="689" type="line"/>
      <point x="558" y="682" type="line"/>
      <point x="577" y="678"/>
      <point x="588" y="674"/>
      <point x="581" y="656" type="curve"/>
      <point x="631" y="656" type="line"/>
      <point x="638" y="672"/>
      <point x="657" y="677"/>
      <point x="676" y="682" type="curve"/>
      <point x="715" y="689" type="line"/>
      <point x="715" y="709" type="line"/>
      <point x="701" y="709" type="line"/>
    </contour>
    <contour>
      <point x="40" y="709" type="line"/>
      <point x="40" y="689" type="line"/>
      <point x="90" y="680" type="line"/>
      <point x="104" y="676"/>
      <point x="118" y="665"/>
      <point x="125" y="651" type="curve"/>
      <point x="240" y="651" type="line"/>
      <point x="235" y="663"/>
      <point x="245" y="675"/>
      <point x="265" y="680" type="curve"/>
      <point x="325" y="689" type="line"/>
      <point x="325" y="709" type="line"/>
      <point x="250" y="709" type="line"/>
      <point x="230" y="709"/>
      <point x="206" y="705"/>
      <point x="186" y="705" type="curve"/>
      <point x="166" y="705"/>
      <point x="135" y="709"/>
      <point x="115" y="709" type="curve"/>
    </contour>
    <contour>
      <point x="437" y="20" type="line"/>
      <point x="437" y="354" type="line"/>
      <point x="327" y="354" type="line"/>
      <point x="327" y="20" type="line"/>
    </contour>
    <component base="SerifCaps" xOffset="252"/>
  </outline>
</glyph>
<glyph name="Z" format="1">
  <advance width="680"/>
  <unicode hex="005A"/>
  <outline>
    <contour>
      <point x="599" y="700" type="line"/>
      <point x="491" y="700" type="line"/>
      <point x="50" y="12" type="line" smooth="yes"/>
      <point x="50" y="0" type="line"/>
      <point x="157" y="0" type="line"/>
      <point x="599" y="687" type="line"/>
    </contour>
    <contour>
      <point x="603" y="0" type="line"/>
      <point x="630" y="168" type="line"/>
      <point x="610" y="171" type="line"/>
      <point x="569" y="76" type="line"/>
      <point x="558" y="54"/>
      <point x="530" y="40"/>
      <point x="504" y="40" type="curve"/>
      <point x="82" y="37" type="line"/>
      <point x="62" y="0" type="line"/>
      <point x="257" y="0" type="line"/>
    </contour>
    <contour>
      <point x="72" y="549" type="line"/>
      <point x="115" y="624" type="line" smooth="yes"/>
      <point x="127" y="645"/>
      <point x="150" y="660"/>
      <point x="180" y="660" type="curve" smooth="yes"/>
      <point x="564" y="663" type="line"/>
      <point x="583" y="700" type="line"/>
      <point x="71" y="700" type="line"/>
      <point x="52" y="552" type="line"/>
    </contour>
  </outline>
</glyph>
<glyph name="a" format="1">
  <advance width="519"/>
  <unicode hex="0061"/>
  <outline>
    <contour>
      <point x="311" y="359" type="line"/>
      <point x="311" y="474"/>
      <point x="136" y="459"/>
      <point x="52" y="384" type="curve"/>
      <point x="39" y="402" type="line"/>
      <point x="99" y="468"/>
      <point x="208" y="510"/>
      <point x="291" y="510" type="curve" smooth="yes"/>
      <point x="369" y="510"/>
      <point x="401" y="472"/>
      <point x="401" y="424" type="curve"/>
      <point x="401" y="69" type="line" smooth="yes"/>
      <point x="401" y="44"/>
      <point x="414" y="30"/>
      <point x="432" y="30" type="curve" smooth="yes"/>
      <point x="445" y="30"/>
      <point x="454" y="38"/>
      <point x="469" y="48" type="curve"/>
      <point x="484" y="29" type="line"/>
      <point x="453" y="8"/>
      <point x="425" y="-11"/>
      <point x="389" y="-11" type="curve" smooth="yes"/>
      <point x="344" y="-11"/>
      <point x="311" y="19"/>
      <point x="311" y="65" type="curve" smooth="yes"/>
    </contour>
    <contour>
      <point x="320" y="274" type="line"/>
      <point x="207" y="226" type="line" smooth="yes"/>
      <point x="159" y="206"/>
      <point x="131" y="174"/>
      <point x="131" y="134" type="curve" smooth="yes"/>
      <point x="131" y="93"/>
      <point x="161" y="60"/>
      <point x="205" y="60" type="curve" smooth="yes"/>
      <point x="224" y="60"/>
      <point x="253" y="66"/>
      <point x="272" y="76" type="curve" smooth="yes"/>
      <point x="326" y="105" type="line"/>
      <point x="326" y="79" type="line"/>
      <point x="177" y="-9" type="line"/>
      <point x="116" y="-9"/>
      <point x="36" y="38"/>
      <point x="36" y="106" type="curve" smooth="yes"/>
      <point x="36" y="156"/>
      <point x="78" y="209"/>
      <point x="147" y="239" type="curve" smooth="yes"/>
      <point x="320" y="314" type="line"/>
    </contour>
  </outline>
</glyph>
<glyph name="b" format="1">
  <advance width="600"/>
  <unicode hex="0062"/>
  <outline>
    <contour>
      <point x="110" y="-10" type="line"/>
      <point x="130" y="-10" type="line"/>
      <point x="200" y="50" type="line"/>
      <point x="200" y="687" type="line"/>
      <point x="110" y="687" type="line"/>
    </contour>
    <contour>
      <point x="212" y="15"/>
      <point x="280" y="-10"/>
      <point x="341" y="-10" type="curve" smooth="yes"/>
      <point x="472" y="-10"/>
      <point x="607" y="114"/>
      <point x="594" y="301" type="curve" smooth="yes"/>
      <point x="586" y="423"/>
      <point x="496" y="510"/>
      <point x="371" y="510" type="curve" smooth="yes"/>
      <point x="292" y="510"/>
      <point x="228" y="472"/>
      <point x="163" y="423" type="curve"/>
      <point x="179" y="392" type="line"/>
      <point x="210" y="433"/>
      <point x="264" y="466"/>
      <point x="312" y="466" type="curve" smooth="yes"/>
      <point x="408" y="466"/>
      <point x="482" y="383"/>
      <point x="498" y="281" type="curve" smooth="yes"/>
      <point x="521" y="134"/>
      <point x="460" y="30"/>
      <point x="371" y="17" type="curve" smooth="yes"/>
      <point x="304" y="8"/>
      <point x="242" y="42"/>
      <point x="189" y="121" type="curve"/>
      <point x="158" y="58" type="line"/>
    </contour>
    <component base="SerifSpur" xOffset="54" yOffset="290"/>
  </outline>
</glyph>
<glyph name="c" format="1">
  <advance width="517"/>
  <unicode hex="0063"/>
  <outline>
    <contour>
      <point x="139" y="510"/>
      <point x="45" y="412"/>
      <point x="45" y="238" type="curve" smooth="yes"/>
      <point x="45" y="58"/>
      <point x="142" y="-10"/>
      <point x="243" y="-10" type="curve" smooth="yes"/>
      <point x="345" y="-10"/>
      <point x="413" y="53"/>
      <point x="482" y="129" type="curve"/>
      <point x="468" y="148" type="line"/>
      <point x="411" y="80"/>
      <point x="338" y="54"/>
      <point x="289" y="54" type="curve" smooth="yes"/>
      <point x="202" y="54"/>
      <point x="147" y="118"/>
      <point x="132" y="219" type="curve" smooth="yes"/>
      <point x="115" y="328"/>
      <point x="138" y="483"/>
      <point x="261" y="481" type="curve" smooth="yes"/>
      <point x="326" y="480"/>
      <point x="363" y="447"/>
      <point x="414" y="387" type="curve"/>
      <point x="448" y="470" type="line"/>
      <point x="411" y="490"/>
      <point x="351" y="510"/>
      <point x="294" y="510" type="curve" smooth="yes"/>
    </contour>
  </outline>
</glyph>
<glyph name="d" format="1">
  <advance width="592"/>
  <unicode hex="0064"/>
  <outline>
    <contour>
      <point x="491" y="749" type="line"/>
      <point x="401" y="749" type="line"/>
      <point x="401" y="-10" type="line"/>
      <point x="557" y="31" type="line"/>
      <point x="557" y="51" type="line"/>
      <point x="511" y="51" type="line" smooth="yes"/>
      <point x="500" y="51"/>
      <point x="491" y="59"/>
      <point x="491" y="71" type="curve"/>
    </contour>
    <contour>
      <point x="388" y="486"/>
      <point x="328" y="510"/>
      <point x="273" y="510" type="curve" smooth="yes"/>
      <point x="153" y="510"/>
      <point x="26" y="395"/>
      <point x="26" y="227" type="curve" smooth="yes"/>
      <point x="26" y="86"/>
      <point x="116" y="-10"/>
      <point x="240" y="-10" type="curve" smooth="yes"/>
      <point x="319" y="-10"/>
      <point x="373" y="28"/>
      <point x="438" y="77" type="curve"/>
      <point x="422" y="108" type="line"/>
      <point x="390" y="66"/>
      <point x="348" y="34"/>
      <point x="296" y="34" type="curve" smooth="yes"/>
      <point x="206" y="34"/>
      <point x="119" y="130"/>
      <point x="119" y="276" type="curve" smooth="yes"/>
      <point x="119" y="383"/>
      <point x="165" y="485"/>
      <point x="262" y="485" type="curve" smooth="yes"/>
      <point x="319" y="485"/>
      <point x="365" y="449"/>
      <point x="412" y="379" type="curve"/>
      <point x="443" y="442" type="line"/>
    </contour>
    <component base="SerifSpur" xOffset="345" yOffset="290"/>
  </outline>
</glyph>
<glyph name="e" format="1">
  <advance width="517"/>
  <unicode hex="0065"/>
  <outline>
    <contour>
      <point x="460" y="410"/>
      <point x="378" y="510"/>
      <point x="266" y="510" type="curve" smooth="yes"/>
      <point x="147" y="510"/>
      <point x="36" y="403"/>
      <point x="36" y="238" type="curve" smooth="yes"/>
      <point x="36" y="58"/>
      <point x="133" y="-10"/>
      <point x="234" y="-10" type="curve" smooth="yes"/>
      <point x="336" y="-10"/>
      <point x="404" y="53"/>
      <point x="473" y="129" type="curve"/>
      <point x="459" y="148" type="line"/>
      <point x="392" y="80"/>
      <point x="329" y="54"/>
      <point x="280" y="54" type="curve" smooth="yes"/>
      <point x="193" y="54"/>
      <point x="138" y="118"/>
      <point x="123" y="219" type="curve" smooth="yes"/>
      <point x="103" y="356"/>
      <point x="140" y="459"/>
      <point x="214" y="475" type="curve" smooth="yes"/>
      <point x="308" y="495"/>
      <point x="372" y="413"/>
      <point x="372" y="270" type="curve"/>
      <point x="454" y="270" type="line"/>
      <point x="463" y="280" type="line"/>
    </contour>
    <contour>
      <point x="80" y="300" type="line"/>
      <point x="80" y="270" type="line"/>
      <point x="423" y="270" type="line"/>
      <point x="423" y="300" type="line"/>
    </contour>
  </outline>
</glyph>
<glyph name="f" format="1">
  <advance width="492"/>
  <unicode hex="0066"/>
  <outline>
    <contour>
      <point x="40" y="470" type="line"/>
      <point x="369" y="470" type="line"/>
      <point x="369" y="500" type="line"/>
      <point x="198" y="500" type="line"/>
      <point x="198" y="520" type="line"/>
      <point x="119" y="520" type="line"/>
      <point x="118" y="509"/>
      <point x="110" y="501"/>
      <point x="99" y="500" type="curve"/>
      <point x="40" y="500" type="line"/>
    </contour>
    <contour>
      <point x="119" y="46" type="line"/>
      <point x="209" y="46" type="line"/>
      <point x="209" y="697" type="line" smooth="yes"/>
      <point x="209" y="753"/>
      <point x="214" y="760"/>
      <point x="266" y="760" type="curve" smooth="yes"/>
      <point x="302" y="760"/>
      <point x="341" y="749"/>
      <point x="423" y="703" type="curve"/>
      <point x="452" y="790" type="line"/>
      <point x="403" y="798"/>
      <point x="366" y="800"/>
      <point x="307" y="800" type="curve" smooth="yes"/>
      <point x="204" y="800"/>
      <point x="119" y="720"/>
      <point x="119" y="605" type="curve"/>
    </contour>
    <component base="Serif_lc_long" xOffset="54"/>
  </outline>
</glyph>
<glyph name="g" format="1">
  <advance width="554"/>
  <unicode hex="0067"/>
  <outline>
    <contour>
      <point x="442" y="450"/>
      <point x="352" y="515"/>
      <point x="253" y="509" type="curve" smooth="yes"/>
      <point x="148" y="503"/>
      <point x="63" y="415"/>
      <point x="73" y="315" type="curve" smooth="yes"/>
      <point x="82" y="222"/>
      <point x="173" y="155"/>
      <point x="275" y="161" type="curve" smooth="yes"/>
      <point x="387" y="167"/>
      <point x="466" y="258"/>
      <point x="454" y="355" type="curve" smooth="yes"/>
    </contour>
    <contour>
      <point x="298" y="480"/>
      <point x="351" y="435"/>
      <point x="366" y="346" type="curve" smooth="yes"/>
      <point x="380" y="264"/>
      <point x="350" y="201"/>
      <point x="286" y="195" type="curve" smooth="yes"/>
      <point x="232" y="190"/>
      <point x="176" y="224"/>
      <point x="161" y="323" type="curve" smooth="yes"/>
      <point x="147" y="415"/>
      <point x="184" y="470"/>
      <point x="241" y="475" type="curve" smooth="yes"/>
    </contour>
    <contour>
      <point x="335" y="483" type="line"/>
      <point x="340" y="455" type="line"/>
      <point x="506" y="434" type="line"/>
      <point x="506" y="500" type="line"/>
    </contour>
    <contour>
      <point x="50" y="70" type="line"/>
      <point x="50" y="-46"/>
      <point x="451" y="-13"/>
      <point x="451" y="-120" type="curve" smooth="yes"/>
      <point x="451" y="-185"/>
      <point x="374" y="-229"/>
      <point x="283" y="-229" type="curve" smooth="yes"/>
      <point x="180" y="-229"/>
      <point x="110" y="-178"/>
      <point x="108" y="-101" type="curve" smooth="yes"/>
      <point x="107" y="-62"/>
      <point x="140" y="-12"/>
      <point x="207" y="24" type="curve"/>
      <point x="183" y="42" type="line"/>
      <point x="94" y="-9"/>
      <point x="35" y="-77"/>
      <point x="35" y="-128" type="curve" smooth="yes"/>
      <point x="35" y="-217"/>
      <point x="130" y="-260"/>
      <point x="257" y="-260" type="curve" smooth="yes"/>
      <point x="417" y="-260"/>
      <point x="524" y="-185"/>
      <point x="524" y="-72" type="curve" smooth="yes"/>
      <point x="524" y="99"/>
      <point x="134" y="25"/>
      <point x="134" y="128" type="curve"/>
      <point x="178" y="203" type="line"/>
      <point x="155" y="212" type="line"/>
    </contour>
  </outline>
</glyph>
<glyph name="h" format="1">
  <advance width="600"/>
  <unicode hex="0068"/>
  <outline>
    <contour>
      <point x="85" y="46" type="line"/>
      <point x="175" y="46" type="line"/>
      <point x="175" y="727" type="line"/>
      <point x="85" y="727" type="line"/>
    </contour>
    <contour>
      <point x="418" y="46" type="line"/>
      <point x="508" y="46" type="line"/>
      <point x="508" y="407" type="line"/>
      <point x="508" y="472"/>
      <point x="455" y="510"/>
      <point x="365" y="510" type="curve" smooth="yes"/>
      <point x="313" y="510"/>
      <point x="237" y="487"/>
      <point x="160" y="447" type="curve"/>
      <point x="160" y="421" type="line"/>
      <point x="216" y="452"/>
      <point x="273" y="470"/>
      <point x="314" y="470" type="curve" smooth="yes"/>
      <point x="379" y="470"/>
      <point x="418" y="439"/>
      <point x="418" y="387" type="curve"/>
    </contour>
    <component base="SerifSpur" xOffset="29" yOffset="300"/>
    <component base="Serif_lc" xOffset="20"/>
    <component base="Serif_lc" xOffset="353"/>
  </outline>
</glyph>
<glyph name="i" format="1">
  <advance width="310"/>
  <unicode hex="0069"/>
  <outline>
    <contour>
      <point x="110" y="46" type="line"/>
      <point x="200" y="46" type="line"/>
      <point x="200" y="457" type="line"/>
      <point x="110" y="457" type="line"/>
    </contour>
    <contour>
      <point x="185" y="572"/>
      <point x="210" y="596"/>
      <point x="210" y="627" type="curve" smooth="yes"/>
      <point x="210" y="657"/>
      <point x="185" y="682"/>
      <point x="155" y="682" type="curve" smooth="yes"/>
      <point x="125" y="682"/>
      <point x="100" y="657"/>
      <point x="100" y="627" type="curve" smooth="yes"/>
      <point x="100" y="596"/>
      <point x="125" y="572"/>
      <point x="155" y="572" type="curve" smooth="yes"/>
    </contour>
    <component base="Serif_lc" xOffset="45"/>
    <component base="SerifSpur" xOffset="54" yOffset="10"/>
  </outline>
</glyph>
<glyph name="j" format="1">
  <advance width="296"/>
  <unicode hex="006A"/>
  <outline>
    <contour>
      <point x="136" y="-104" type="line" smooth="yes"/>
      <point x="136" y="-206"/>
      <point x="77" y="-229"/>
      <point x="57" y="-241" type="curve"/>
      <point x="71" y="-260" type="line"/>
      <point x="93" y="-249"/>
      <point x="226" y="-186"/>
      <point x="226" y="-64" type="curve" smooth="yes"/>
      <point x="226" y="457" type="line"/>
      <point x="136" y="457" type="line"/>
    </contour>
    <contour>
      <point x="212" y="590"/>
      <point x="239" y="616"/>
      <point x="239" y="650" type="curve" smooth="yes"/>
      <point x="239" y="683"/>
      <point x="212" y="710"/>
      <point x="179" y="710" type="curve" smooth="yes"/>
      <point x="146" y="710"/>
      <point x="119" y="683"/>
      <point x="119" y="650" type="curve" smooth="yes"/>
      <point x="119" y="616"/>
      <point x="146" y="590"/>
      <point x="179" y="590" type="curve" smooth="yes"/>
    </contour>
    <component base="SerifSpur" xOffset="80"/>
  </outline>
</glyph>
<glyph name="k" format="1">
  <advance width="607"/>
  <unicode hex="006B"/>
  <outline>
    <contour>
      <point x="106" y="14" type="line"/>
      <point x="196" y="14" type="line"/>
      <point x="196" y="687" type="line"/>
      <point x="106" y="687" type="line"/>
    </contour>
    <contour>
      <point x="278" y="261" type="line"/>
      <point x="426" y="447" type="line" smooth="yes"/>
      <point x="439" y="463"/>
      <point x="447" y="468"/>
      <point x="466" y="473" type="curve"/>
      <point x="505" y="480" type="line"/>
      <point x="505" y="500" type="line"/>
      <point x="491" y="500" type="line" smooth="yes"/>
      <point x="462" y="500"/>
      <point x="437" y="495"/>
      <point x="418" y="495" type="curve" smooth="yes"/>
      <point x="398" y="495"/>
      <point x="374" y="500"/>
      <point x="345" y="500" type="curve" smooth="yes"/>
      <point x="321" y="500" type="line"/>
      <point x="321" y="480" type="line"/>
      <point x="369" y="473" type="line"/>
      <point x="387" y="469"/>
      <point x="394" y="459"/>
      <point x="386" y="447" type="curve"/>
      <point x="238" y="261" type="line"/>
    </contour>
    <contour>
      <point x="182" y="243" type="line"/>
      <point x="308" y="243" type="line"/>
      <point x="308" y="273" type="line"/>
      <point x="182" y="273" type="line"/>
    </contour>
    <contour>
      <point x="239" y="249" type="line"/>
      <point x="434" y="0" type="line"/>
      <point x="567" y="0" type="line"/>
      <point x="567" y="20" type="line"/>
      <point x="529" y="27" type="line" smooth="yes"/>
      <point x="514" y="30"/>
      <point x="494" y="44"/>
      <point x="479" y="63" type="curve" smooth="yes"/>
      <point x="292" y="301" type="line"/>
    </contour>
    <component base="SerifSpur" xOffset="50" yOffset="290"/>
    <component base="Serif_lc" xOffset="41"/>
  </outline>
</glyph>
<glyph name="l" format="1">
  <advance width="291"/>
  <unicode hex="006C"/>
  <outline>
    <contour>
      <point x="101" y="46" type="line"/>
      <point x="191" y="46" type="line"/>
      <point x="191" y="727" type="line"/>
      <point x="101" y="727" type="line"/>
    </contour>
    <component base="Serif_lc" xOffset="36"/>
    <component base="SerifSpur" xOffset="45" yOffset="290"/>
  </outline>
</glyph>
<glyph name="m" format="1">
  <advance width="939"/>
  <unicode hex="006D"/>
  <outline>
    <contour>
      <point x="123" y="46" type="line"/>
      <point x="213" y="46" type="line"/>
      <point x="213" y="457" type="line"/>
      <point x="123" y="457" type="line"/>
    </contour>
    <contour>
      <point x="436" y="46" type="line"/>
      <point x="526" y="46" type="line"/>
      <point x="526" y="387" type="line"/>
      <point x="526" y="464"/>
      <point x="473" y="510"/>
      <point x="383" y="510" type="curve" smooth="yes"/>
      <point x="322" y="510"/>
      <point x="246" y="483"/>
      <point x="178" y="437" type="curve"/>
      <point x="178" y="411" type="line"/>
      <point x="240" y="450"/>
      <point x="291" y="470"/>
      <point x="332" y="470" type="curve" smooth="yes"/>
      <point x="394" y="470"/>
      <point x="436" y="429"/>
      <point x="436" y="367" type="curve"/>
    </contour>
    <contour>
      <point x="749" y="46" type="line"/>
      <point x="839" y="46" type="line"/>
      <point x="839" y="387" type="line"/>
      <point x="839" y="464"/>
      <point x="786" y="510"/>
      <point x="696" y="510" type="curve" smooth="yes"/>
      <point x="635" y="510"/>
      <point x="559" y="483"/>
      <point x="491" y="437" type="curve"/>
      <point x="491" y="411" type="line"/>
      <point x="553" y="450"/>
      <point x="604" y="470"/>
      <point x="645" y="470" type="curve" smooth="yes"/>
      <point x="707" y="470"/>
      <point x="749" y="429"/>
      <point x="749" y="367" type="curve"/>
    </contour>
    <component base="Serif_lc" xOffset="58"/>
    <component base="SerifSpur" xOffset="67"/>
    <component base="Serif_lc" xOffset="371"/>
    <component base="Serif_lc" xOffset="684"/>
  </outline>
</glyph>
<glyph name="n" format="1">
  <advance width="600"/>
  <unicode hex="006E"/>
  <outline>
    <contour>
      <point x="85" y="46" type="line"/>
      <point x="175" y="46" type="line"/>
      <point x="175" y="457" type="line"/>
      <point x="85" y="457" type="line"/>
    </contour>
    <contour>
      <point x="418" y="46" type="line"/>
      <point x="508" y="46" type="line"/>
      <point x="508" y="407" type="line"/>
      <point x="508" y="472"/>
      <point x="455" y="510"/>
      <point x="365" y="510" type="curve" smooth="yes"/>
      <point x="313" y="510"/>
      <point x="237" y="487"/>
      <point x="160" y="447" type="curve"/>
      <point x="160" y="421" type="line"/>
      <point x="216" y="452"/>
      <point x="273" y="470"/>
      <point x="314" y="470" type="curve" smooth="yes"/>
      <point x="379" y="470"/>
      <point x="418" y="439"/>
      <point x="418" y="387" type="curve"/>
    </contour>
    <component base="Serif_lc" xOffset="20"/>
    <component base="SerifSpur" xOffset="29" yOffset="10"/>
    <component base="Serif_lc" xOffset="353"/>
  </outline>
</glyph>
<glyph name="o" format="1">
  <advance width="548"/>
  <unicode hex="006F"/>
  <outline>
    <contour>
      <point x="522" y="392"/>
      <point x="422" y="513"/>
      <point x="275" y="511" type="curve" smooth="yes"/>
      <point x="138" y="511"/>
      <point x="26" y="399"/>
      <point x="26" y="253" type="curve" smooth="yes"/>
      <point x="26" y="100"/>
      <point x="119" y="-10"/>
      <point x="276" y="-10" type="curve" smooth="yes"/>
      <point x="418" y="-10"/>
      <point x="524" y="117"/>
      <point x="522" y="249" type="curve" smooth="yes"/>
    </contour>
    <contour>
      <point x="189" y="19"/>
      <point x="126" y="156"/>
      <point x="126" y="294" type="curve" smooth="yes"/>
      <point x="126" y="409"/>
      <point x="157" y="481"/>
      <point x="259" y="481" type="curve"/>
      <point x="359" y="481"/>
      <point x="422" y="344"/>
      <point x="422" y="206" type="curve" smooth="yes"/>
      <point x="422" y="91"/>
      <point x="391" y="19"/>
      <point x="289" y="19" type="curve"/>
    </contour>
  </outline>
</glyph>
<glyph name="p" format="1">
  <advance width="600"/>
  <unicode hex="0070"/>
  <outline>
    <contour>
      <point x="110" y="-164" type="line"/>
      <point x="200" y="-164" type="line"/>
      <point x="200" y="437" type="line"/>
      <point x="110" y="437" type="line"/>
    </contour>
    <component base="Serif_lc" xOffset="45" yOffset="-200"/>
    <component base="SerifSpur" xOffset="54" yOffset="10"/>
  </outline>
</glyph>
<glyph name="q" format="1">
  <advance width="610"/>
  <unicode hex="0071"/>
  <outline>
    <contour>
      <point x="490" y="509" type="line"/>
      <point x="420" y="449" type="line"/>
      <point x="420" y="-214" type="line"/>
      <point x="510" y="-214" type="line"/>
      <point x="510" y="509" type="line"/>
    </contour>
    <contour>
      <point x="420" y="-250"/>
      <point x="445" y="-245"/>
      <point x="465" y="-245" type="curve"/>
      <point x="485" y="-245"/>
      <point x="510" y="-250"/>
      <point x="540" y="-250" type="curve"/>
      <point x="575" y="-250" type="line"/>
      <point x="575" y="-230" type="line"/>
      <point x="535" y="-223" type="line"/>
      <point x="515" y="-218"/>
      <point x="510" y="-213"/>
      <point x="510" y="-197" type="curve"/>
      <point x="420" y="-197" type="line"/>
      <point x="420" y="-213"/>
      <point x="406" y="-220"/>
      <point x="385" y="-223" type="curve"/>
      <point x="325" y="-230" type="line"/>
      <point x="325" y="-250" type="line"/>
      <point x="390" y="-250" type="line"/>
    </contour>
    <contour>
      <point x="407" y="486"/>
      <point x="347" y="510"/>
      <point x="292" y="510" type="curve" smooth="yes"/>
      <point x="172" y="510"/>
      <point x="45" y="395"/>
      <point x="45" y="227" type="curve" smooth="yes"/>
      <point x="45" y="86"/>
      <point x="135" y="-10"/>
      <point x="259" y="-10" type="curve" smooth="yes"/>
      <point x="338" y="-10"/>
      <point x="392" y="28"/>
      <point x="457" y="77" type="curve"/>
      <point x="441" y="108" type="line"/>
      <point x="409" y="66"/>
      <point x="367" y="34"/>
      <point x="315" y="34" type="curve" smooth="yes"/>
      <point x="225" y="34"/>
      <point x="138" y="130"/>
      <point x="138" y="276" type="curve" smooth="yes"/>
      <point x="138" y="383"/>
      <point x="184" y="485"/>
      <point x="281" y="485" type="curve" smooth="yes"/>
      <point x="338" y="485"/>
      <point x="384" y="449"/>
      <point x="431" y="379" type="curve"/>
      <point x="462" y="442" type="line"/>
    </contour>
  </outline>
</glyph>
<glyph name="r" format="1">
  <advance width="504"/>
  <unicode hex="0072"/>
  <outline>
    <contour>
      <point x="123" y="14" type="line"/>
      <point x="213" y="14" type="line"/>
      <point x="213" y="445" type="line"/>
      <point x="123" y="445" type="line"/>
    </contour>
    <contour>
      <point x="337" y="436"/>
      <point x="386" y="409"/>
      <point x="414" y="393" type="curve"/>
      <point x="445" y="490" type="line"/>
      <point x="413" y="502"/>
      <point x="369" y="510"/>
      <point x="344" y="510" type="curve" smooth="yes"/>
      <point x="281" y="510"/>
      <point x="238" y="451"/>
      <point x="197" y="379" type="curve"/>
      <point x="197" y="346" type="line"/>
      <point x="238" y="411"/>
      <point x="283" y="436"/>
      <point x="310" y="436" type="curve" smooth="yes"/>
    </contour>
    <component base="SerifSpur" xOffset="67"/>
    <component base="Serif_lc_long" xOffset="58"/>
  </outline>
</glyph>
<glyph name="s" format="1">
  <advance width="429"/>
  <unicode hex="0073"/>
  <outline>
    <contour>
      <point x="249" y="480"/>
      <point x="314" y="465"/>
      <point x="324" y="440" type="curve" smooth="yes"/>
      <point x="347" y="384" type="line"/>
      <point x="367" y="384" type="line"/>
      <point x="367" y="490" type="line"/>
      <point x="321" y="500"/>
      <point x="256" y="510"/>
      <point x="213" y="510" type="curve" smooth="yes"/>
      <point x="104" y="510"/>
      <point x="49" y="447"/>
      <point x="49" y="374" type="curve" smooth="yes"/>
      <point x="49" y="210"/>
      <point x="329" y="210"/>
      <point x="329" y="99" type="curve" smooth="yes"/>
      <point x="329" y="53"/>
      <point x="280" y="21"/>
      <point x="225" y="21" type="curve" smooth="yes"/>
      <point x="172" y="21"/>
      <point x="122" y="50"/>
      <point x="103" y="92" type="curve" smooth="yes"/>
      <point x="70" y="166" type="line"/>
      <point x="36" y="166" type="line"/>
      <point x="58" y="30" type="line"/>
      <point x="91" y="5"/>
      <point x="143" y="-9"/>
      <point x="201" y="-9" type="curve" smooth="yes"/>
      <point x="314" y="-9"/>
      <point x="389" y="43"/>
      <point x="389" y="135" type="curve" smooth="yes"/>
      <point x="389" y="312"/>
      <point x="109" y="295"/>
      <point x="109" y="411" type="curve" smooth="yes"/>
      <point x="109" y="451"/>
      <point x="142" y="480"/>
      <point x="204" y="480" type="curve" smooth="yes"/>
    </contour>
  </outline>
</glyph>
<glyph name="t" format="1">
  <advance width="420"/>
  <unicode hex="0074"/>
  <outline>
    <contour>
      <point x="109" y="105" type="line" smooth="yes"/>
      <point x="109" y="24"/>
      <point x="149" y="-13"/>
      <point x="219" y="-12" type="curve" smooth="yes"/>
      <point x="292" y="-11"/>
      <point x="346" y="38"/>
      <point x="385" y="70" type="curve"/>
      <point x="370" y="89" type="line"/>
      <point x="330" y="62"/>
      <point x="306" y="44"/>
      <point x="271" y="44" type="curve" smooth="yes"/>
      <point x="228" y="44"/>
      <point x="199" y="74"/>
      <point x="199" y="145" type="curve" smooth="yes"/>
      <point x="199" y="500" type="line"/>
      <point x="109" y="500" type="line"/>
    </contour>
    <contour>
      <point x="40" y="470" type="line"/>
      <point x="198" y="470" type="line"/>
      <point x="369" y="470" type="line"/>
      <point x="369" y="500" type="line"/>
      <point x="198" y="500" type="line"/>
      <point x="198" y="622" type="line"/>
      <point x="178" y="622" type="line"/>
      <point x="40" y="490" type="line"/>
    </contour>
  </outline>
</glyph>
<glyph name="u" format="1">
  <advance width="625"/>
  <unicode hex="0075"/>
  <outline>
    <contour>
      <point x="191" y="454" type="line"/>
      <point x="101" y="454" type="line"/>
      <point x="101" y="113" type="line"/>
      <point x="101" y="36"/>
      <point x="154" y="-10"/>
      <point x="244" y="-10" type="curve" smooth="yes"/>
      <point x="305" y="-10"/>
      <point x="381" y="17"/>
      <point x="449" y="63" type="curve"/>
      <point x="449" y="89" type="line"/>
      <point x="387" y="50"/>
      <point x="336" y="30"/>
      <point x="295" y="30" type="curve" smooth="yes"/>
      <point x="233" y="30"/>
      <point x="191" y="71"/>
      <point x="191" y="133" type="curve"/>
    </contour>
    <contour>
      <point x="590" y="31" type="line"/>
      <point x="590" y="51" type="line"/>
      <point x="544" y="51" type="line" smooth="yes"/>
      <point x="533" y="51"/>
      <point x="524" y="59"/>
      <point x="524" y="71" type="curve"/>
      <point x="524" y="454" type="line"/>
      <point x="434" y="454" type="line"/>
      <point x="434" y="70" type="line"/>
      <point x="434" y="-10" type="line"/>
    </contour>
    <component base="SerifSpur" xOffset="45" yOffset="-2"/>
    <component base="SerifSpur" xOffset="378" yOffset="-2"/>
  </outline>
</glyph>
<glyph name="v" format="1">
  <advance width="653"/>
  <unicode hex="0076"/>
  <outline>
    <contour>
      <point x="200" y="500"/>
      <point x="165" y="495"/>
      <point x="146" y="495" type="curve"/>
      <point x="126" y="495"/>
      <point x="107" y="500"/>
      <point x="78" y="500" type="curve"/>
      <point x="44" y="500" type="line"/>
      <point x="44" y="480" type="line"/>
      <point x="78" y="473" type="line"/>
      <point x="91" y="470"/>
      <point x="102" y="460"/>
      <point x="107" y="447" type="curve"/>
      <point x="200" y="447" type="line"/>
      <point x="194" y="463"/>
      <point x="205" y="468"/>
      <point x="224" y="473" type="curve"/>
      <point x="263" y="480" type="line"/>
      <point x="263" y="500" type="line"/>
      <point x="229" y="500" type="line"/>
    </contour>
    <contour>
      <point x="566" y="500"/>
      <point x="531" y="495"/>
      <point x="512" y="495" type="curve"/>
      <point x="492" y="495"/>
      <point x="468" y="500"/>
      <point x="439" y="500" type="curve"/>
      <point x="408" y="500" type="line"/>
      <point x="408" y="480" type="line"/>
      <point x="463" y="473" type="line"/>
      <point x="482" y="469"/>
      <point x="494" y="465"/>
      <point x="487" y="447" type="curve"/>
      <point x="525" y="447" type="line"/>
      <point x="532" y="463"/>
      <point x="551" y="468"/>
      <point x="570" y="473" type="curve"/>
      <point x="609" y="480" type="line"/>
      <point x="609" y="500" type="line"/>
      <point x="595" y="500" type="line"/>
    </contour>
    <contour>
      <point x="297" y="-10" type="line"/>
      <point x="337" y="-10" type="line"/>
      <point x="525" y="447" type="line"/>
      <point x="487" y="447" type="line"/>
      <point x="336" y="81" type="line"/>
      <point x="352" y="81" type="line"/>
      <point x="200" y="447" type="line"/>
      <point x="107" y="447" type="line"/>
    </contour>
  </outline>
</glyph>
<glyph name="w" format="1">
  <advance width="901"/>
  <unicode hex="0077"/>
  <outline>
    <contour>
      <point x="191" y="502"/>
      <point x="156" y="497"/>
      <point x="137" y="497" type="curve"/>
      <point x="117" y="497"/>
      <point x="98" y="502"/>
      <point x="69" y="502" type="curve"/>
      <point x="35" y="502" type="line"/>
      <point x="35" y="482" type="line"/>
      <point x="69" y="475" type="line"/>
      <point x="82" y="472"/>
      <point x="93" y="462"/>
      <point x="98" y="449" type="curve"/>
      <point x="191" y="449" type="line"/>
      <point x="185" y="465"/>
      <point x="196" y="470"/>
      <point x="215" y="475" type="curve"/>
      <point x="254" y="482" type="line"/>
      <point x="254" y="502" type="line"/>
      <point x="220" y="502" type="line"/>
    </contour>
    <contour>
      <point x="288" y="-10" type="line"/>
      <point x="318" y="-10" type="line"/>
      <point x="463" y="390" type="line"/>
      <point x="434" y="394" type="line"/>
      <point x="325" y="81" type="line"/>
      <point x="343" y="81" type="line"/>
      <point x="188" y="456" type="line"/>
      <point x="98" y="449" type="line"/>
    </contour>
    <contour>
      <point x="487" y="502"/>
      <point x="452" y="497"/>
      <point x="433" y="497" type="curve"/>
      <point x="413" y="497"/>
      <point x="394" y="502"/>
      <point x="365" y="502" type="curve"/>
      <point x="331" y="502" type="line"/>
      <point x="331" y="482" type="line"/>
      <point x="365" y="475" type="line"/>
      <point x="378" y="472"/>
      <point x="389" y="462"/>
      <point x="394" y="449" type="curve"/>
      <point x="487" y="449" type="line"/>
      <point x="481" y="465"/>
      <point x="492" y="470"/>
      <point x="511" y="475" type="curve"/>
      <point x="550" y="482" type="line"/>
      <point x="550" y="502" type="line"/>
      <point x="516" y="502" type="line"/>
    </contour>
    <contour>
      <point x="823" y="500"/>
      <point x="798" y="495"/>
      <point x="779" y="495" type="curve"/>
      <point x="759" y="495"/>
      <point x="735" y="500"/>
      <point x="706" y="500" type="curve"/>
      <point x="682" y="500" type="line"/>
      <point x="682" y="480" type="line"/>
      <point x="725" y="474" type="line"/>
      <point x="751" y="469"/>
      <point x="758" y="465"/>
      <point x="751" y="447" type="curve"/>
      <point x="782" y="447" type="line"/>
      <point x="789" y="463"/>
      <point x="808" y="468"/>
      <point x="827" y="473" type="curve"/>
      <point x="866" y="480" type="line"/>
      <point x="866" y="500" type="line"/>
      <point x="852" y="500" type="line"/>
    </contour>
    <contour>
      <point x="584" y="-10" type="line"/>
      <point x="614" y="-10" type="line"/>
      <point x="782" y="447" type="line"/>
      <point x="751" y="447" type="line"/>
      <point x="620" y="81" type="line"/>
      <point x="639" y="81" type="line"/>
      <point x="484" y="456" type="line"/>
      <point x="394" y="449" type="line"/>
    </contour>
  </outline>
</glyph>
<glyph name="x" format="1">
  <advance width="594"/>
  <unicode hex="0078"/>
  <outline>
    <contour>
      <point x="411" y="53" type="line"/>
      <point x="512" y="50" type="line"/>
      <point x="197" y="447" type="line"/>
      <point x="98" y="447" type="line"/>
    </contour>
    <contour>
      <point x="191" y="500"/>
      <point x="159" y="496"/>
      <point x="140" y="496" type="curve" smooth="yes"/>
      <point x="120" y="496"/>
      <point x="89" y="500"/>
      <point x="60" y="500" type="curve" smooth="yes"/>
      <point x="28" y="500" type="line"/>
      <point x="28" y="480" type="line"/>
      <point x="69" y="473" type="line" smooth="yes"/>
      <point x="79" y="471"/>
      <point x="89" y="461"/>
      <point x="98" y="447" type="curve"/>
      <point x="197" y="447" type="line"/>
      <point x="190" y="459"/>
      <point x="199" y="469"/>
      <point x="221" y="473" type="curve" smooth="yes"/>
      <point x="257" y="480" type="line"/>
      <point x="257" y="500" type="line"/>
      <point x="220" y="500" type="line" smooth="yes"/>
    </contour>
    <contour>
      <point x="414" y="0"/>
      <point x="449" y="4"/>
      <point x="468" y="4" type="curve"/>
      <point x="488" y="4"/>
      <point x="507" y="0"/>
      <point x="536" y="0" type="curve"/>
      <point x="570" y="0" type="line"/>
      <point x="570" y="20" type="line"/>
      <point x="539" y="27" type="line" smooth="yes"/>
      <point x="526" y="30"/>
      <point x="518" y="41"/>
      <point x="510" y="53" type="curve"/>
      <point x="411" y="53" type="line"/>
      <point x="419" y="39"/>
      <point x="406" y="31"/>
      <point x="387" y="27" type="curve" smooth="yes"/>
      <point x="351" y="20" type="line"/>
      <point x="351" y="0" type="line"/>
      <point x="385" y="0" type="line"/>
    </contour>
    <contour>
      <point x="326" y="261" type="line"/>
      <point x="470" y="447" type="line" smooth="yes"/>
      <point x="481" y="461"/>
      <point x="495" y="471"/>
      <point x="506" y="473" type="curve" smooth="yes"/>
      <point x="545" y="480" type="line"/>
      <point x="545" y="500" type="line"/>
      <point x="538" y="500" type="line" smooth="yes"/>
      <point x="509" y="500"/>
      <point x="477" y="496"/>
      <point x="458" y="496" type="curve" smooth="yes"/>
      <point x="438" y="496"/>
      <point x="407" y="500"/>
      <point x="378" y="500" type="curve" smooth="yes"/>
      <point x="361" y="500" type="line"/>
      <point x="361" y="480" type="line"/>
      <point x="409" y="473" type="line" smooth="yes"/>
      <point x="431" y="470"/>
      <point x="439" y="459"/>
      <point x="430" y="447" type="curve" smooth="yes"/>
      <point x="285" y="261" type="line"/>
    </contour>
    <contour>
      <point x="301" y="242" type="line"/>
      <point x="261" y="242" type="line"/>
      <point x="110" y="53" type="line" smooth="yes"/>
      <point x="100" y="39"/>
      <point x="85" y="29"/>
      <point x="73" y="27" type="curve" smooth="yes"/>
      <point x="24" y="20" type="line"/>
      <point x="24" y="0" type="line"/>
      <point x="48" y="0" type="line" smooth="yes"/>
      <point x="77" y="0"/>
      <point x="102" y="4"/>
      <point x="121" y="4" type="curve" smooth="yes"/>
      <point x="141" y="4"/>
      <point x="165" y="0"/>
      <point x="194" y="0" type="curve" smooth="yes"/>
      <point x="218" y="0" type="line"/>
      <point x="218" y="20" type="line"/>
      <point x="170" y="27" type="line" smooth="yes"/>
      <point x="149" y="30"/>
      <point x="141" y="41"/>
      <point x="150" y="53" type="curve" smooth="yes"/>
    </contour>
  </outline>
</glyph>
<glyph name="y" format="1">
  <advance width="645"/>
  <unicode hex="0079"/>
  <outline>
    <contour>
      <point x="202" y="500"/>
      <point x="167" y="495"/>
      <point x="148" y="495" type="curve"/>
      <point x="128" y="495"/>
      <point x="109" y="500"/>
      <point x="80" y="500" type="curve"/>
      <point x="44" y="500" type="line"/>
      <point x="44" y="480" type="line"/>
      <point x="80" y="473" type="line"/>
      <point x="93" y="470"/>
      <point x="104" y="460"/>
      <point x="109" y="447" type="curve"/>
      <point x="202" y="447" type="line"/>
      <point x="196" y="463"/>
      <point x="207" y="468"/>
      <point x="226" y="473" type="curve"/>
      <point x="265" y="480" type="line"/>
      <point x="265" y="500" type="line"/>
      <point x="231" y="500" type="line"/>
    </contour>
    <contour>
      <point x="558" y="500"/>
      <point x="533" y="495"/>
      <point x="514" y="495" type="curve"/>
      <point x="494" y="495"/>
      <point x="470" y="500"/>
      <point x="441" y="500" type="curve"/>
      <point x="417" y="500" type="line"/>
      <point x="417" y="480" type="line"/>
      <point x="465" y="473" type="line"/>
      <point x="484" y="469"/>
      <point x="490" y="465"/>
      <point x="483" y="447" type="curve"/>
      <point x="523" y="447" type="line"/>
      <point x="530" y="463"/>
      <point x="543" y="468"/>
      <point x="562" y="473" type="curve"/>
      <point x="601" y="480" type="line"/>
      <point x="601" y="500" type="line"/>
      <point x="587" y="500" type="line"/>
    </contour>
    <contour>
      <point x="523" y="447" type="line"/>
      <point x="483" y="447" type="line"/>
      <point x="333" y="81" type="line"/>
      <point x="359" y="81" type="line"/>
      <point x="202" y="447" type="line"/>
      <point x="109" y="447" type="line"/>
      <point x="295" y="-10" type="line"/>
      <point x="248" y="-152" type="line" smooth="yes"/>
      <point x="233" y="-196"/>
      <point x="218" y="-214"/>
      <point x="195" y="-214" type="curve" smooth="yes"/>
      <point x="171" y="-214"/>
      <point x="130" y="-177"/>
      <point x="93" y="-122" type="curve"/>
      <point x="52" y="-219" type="line"/>
      <point x="79" y="-244"/>
      <point x="130" y="-260"/>
      <point x="180" y="-260" type="curve" smooth="yes"/>
      <point x="225" y="-260"/>
      <point x="255" y="-229"/>
      <point x="286" y="-151" type="curve" smooth="yes"/>
    </contour>
  </outline>
</glyph>
<glyph name="z" format="1">
  <advance width="500"/>
  <unicode hex="007A"/>
  <outline>
    <contour>
      <point x="453" y="500" type="line"/>
      <point x="365" y="500" type="line"/>
      <point x="27" y="10" type="line"/>
      <point x="27" y="0" type="line"/>
      <point x="114" y="0" type="line"/>
      <point x="453" y="490" type="line"/>
    </contour>
    <contour>
      <point x="85" y="394" type="line"/>
      <point x="118" y="450" type="line" smooth="yes"/>
      <point x="122" y="457"/>
      <point x="131" y="463"/>
      <point x="142" y="463" type="curve" smooth="yes"/>
      <point x="353" y="470" type="line"/>
      <point x="405" y="470" type="line"/>
      <point x="405" y="500" type="line"/>
      <point x="65" y="500" type="line"/>
      <point x="65" y="394" type="line"/>
    </contour>
    <contour>
      <point x="440" y="126" type="line"/>
      <point x="405" y="72" type="line"/>
      <point x="394" y="52"/>
      <point x="377" y="38"/>
      <point x="363" y="37" type="curve"/>
      <point x="122" y="30" type="line"/>
      <point x="70" y="30" type="line"/>
      <point x="70" y="0" type="line"/>
      <point x="440" y="0" type="line"/>
      <point x="460" y="126" type="line"/>
    </contour>
  </outline>
</glyph>
<glyph name="yen" format="1">
  <advance width="739"/>
  <unicode hex="00A5"/>
  <outline>
    <contour>
      <point x="186" y="304" type="line"/>
      <point x="527" y="304" type="line"/>
      <point x="527" y="344" type="line"/>
      <point x="186" y="344" type="line"/>
    </contour>
    <contour>
      <point x="186" y="211" type="line"/>
      <point x="527" y="211" type="line"/>
      <point x="527" y="251" type="line"/>
      <point x="186" y="251" type="line"/>
    </contour>
    <component base="Y" xOffset="-17"/>
  </outline>
</glyph>
<glyph name="endash" format="1">
  <advance width="398"/>
  <unicode hex="2013"/>
  <outline>
    <contour>
      <point x="30" y="261" type="line"/>
      <point x="368" y="256" type="line"/>
      <point x="368" y="306" type="line"/>
      <point x="30" y="301" type="line"/>
    </contour>
  </outline>
</glyph>
<glyph name="emdash" format="1">
  <advance width="709"/>
  <unicode hex="2014"/>
  <outline>
    <contour>
      <point x="30" y="261" type="line"/>
      <point x="679" y="256" type="line"/>
      <point x="679" y="306" type="line"/>
      <point x="30" y="301" type="line"/>
    </contour>
  </outline>
</glyph>
<glyph name="quotesinglbase" format="1">
  <advance width="141"/>
  <unicode hex="201A"/>
  <outline>
    <contour>
      <point x="26" y="656"/>
      <point x="42" y="641"/>
      <point x="60" y="641" type="curve"/>
      <point x="70" y="641"/>
      <point x="79" y="646"/>
      <point x="83" y="638" type="curve" smooth="yes"/>
      <point x="86" y="628"/>
      <point x="79" y="591"/>
      <point x="44" y="579" type="curve"/>
      <point x="51" y="564" type="line"/>
      <point x="80" y="570"/>
      <point x="111" y="602"/>
      <point x="111" y="653" type="curve" smooth="yes"/>
      <point x="111" y="692"/>
      <point x="89" y="710"/>
      <point x="62" y="710" type="curve"/>
      <point x="42" y="711"/>
      <point x="26" y="695"/>
      <point x="27" y="676" type="curve"/>
    </contour>
  </outline>
</glyph>
<glyph name="euro" format="1">
  <advance width="738"/>
  <unicode hex="20AC"/>
  <outline>
    <contour>
      <point x="80" y="374" type="line"/>
      <point x="561" y="374" type="line"/>
      <point x="581" y="414" type="line"/>
      <point x="100" y="414" type="line"/>
    </contour>
    <contour>
      <point x="70" y="271" type="line"/>
      <point x="551" y="271" type="line"/>
      <point x="571" y="311" type="line"/>
      <point x="90" y="311" type="line"/>
    </contour>
    <contour>
      <point x="664" y="483" type="line"/>
      <point x="681" y="486" type="line"/>
      <point x="668" y="624" type="line"/>
      <point x="626" y="676"/>
      <point x="557" y="710"/>
      <point x="472" y="710" type="curve" smooth="yes"/>
      <point x="291" y="710"/>
      <point x="170" y="554"/>
      <point x="170" y="348" type="curve" smooth="yes"/>
      <point x="170" y="148"/>
      <point x="284" y="-10"/>
      <point x="463" y="-10" type="curve" smooth="yes"/>
      <point x="543" y="-10"/>
      <point x="633" y="38"/>
      <point x="688" y="111" type="curve"/>
      <point x="663" y="152" type="line"/>
      <point x="616" y="83"/>
      <point x="542" y="37"/>
      <point x="480" y="37" type="curve" smooth="yes"/>
      <point x="353" y="37"/>
      <point x="268" y="175"/>
      <point x="268" y="381" type="curve" smooth="yes"/>
      <point x="268" y="549"/>
      <point x="323" y="671"/>
      <point x="447" y="671" type="curve" smooth="yes"/>
      <point x="528" y="671"/>
      <point x="613" y="633"/>
      <point x="633" y="573" type="curve" smooth="yes"/>
    </contour>
  </outline>
</glyph>
<glyph name="H.001" format="1">
  <advance width="900"/>
  <outline>
    <contour>
      <point x="209" y="339" type="line"/>
      <point x="727" y="339" type="line"/>
      <point x="727" y="369" type="line"/>
      <point x="209" y="369" type="line"/>
    </contour>
    <contour>
      <point x="255" y="10" type="line"/>
      <point x="255" y="690" type="line"/>
      <point x="135" y="690" type="line"/>
      <point x="135" y="10" type="line"/>
    </contour>
    <contour>
      <point x="775" y="10" type="line"/>
      <point x="775" y="690" type="line"/>
      <point x="655" y="690" type="line"/>
      <point x="655" y="10" type="line"/>
    </contour>
    <component base="SerifBottomRight" xOffset="154"/>
    <component base="SerifBottomLeft" xOffset="135"/>
    <component base="SerifBottomRight" xOffset="674"/>
    <component base="SerifBottomLeft" xOffset="655"/>
    <component base="SerifBottomRight" xOffset="154" yOffset="700" yScale="-1"/>
    <component base="SerifBottomLeft" xOffset="135" yOffset="700" yScale="-1"/>
    <component base="SerifBottomRight" xOffset="674" yOffset="700" yScale="-1"/>
    <component base="SerifBottomLeft" xOffset="655" yOffset="700" yScale="-1"/>
  </outline>
</glyph>
<glyph name="H.002" format="1">
  <advance width="880"/>
  <outline>
    <contour>
      <point x="199" y="339" type="line"/>
      <point x="717" y="339" type="line"/>
      <point x="717" y="369" type="line"/>
      <point x="199" y="369" type="line"/>
    </contour>
    <contour>
      <point x="245" y="10" type="line"/>
      <point x="245" y="690" type="line"/>
      <point x="125" y="690" type="line"/>
      <point x="125" y="10" type="line"/>
    </contour>
    <contour>
      <point x="765" y="10" type="line"/>
      <point x="765" y="690" type="line"/>
      <point x="645" y="690" type="line"/>
      <point x="645" y="10" type="line"/>
    </contour>
    <component base="SerifCaps" xOffset="50"/>
    <component base="SerifCaps" xOffset="50" yOffset="700" yScale="-1"/>
    <component base="SerifCaps" xOffset="570" yOffset="-6"/>
    <component base="SerifCaps" xOffset="570" yOffset="694" yScale="-1"/>
  </outline>
</glyph>
<glyph name="K.ss01" format="1">
  <advance width="802"/>
  <outline>
    <contour>
      <point x="235" y="10" type="line"/>
      <point x="235" y="690" type="line"/>
      <point x="125" y="690" type="line"/>
      <point x="125" y="10" type="line"/>
    </contour>
    <contour>
      <point x="225" y="700"/>
      <point x="199" y="696"/>
      <point x="179" y="696" type="curve"/>
      <point x="159" y="696"/>
      <point x="135" y="700"/>
      <point x="115" y="700" type="curve"/>
      <point x="50" y="700" type="line"/>
      <point x="50" y="680" type="line"/>
      <point x="100" y="671" type="line"/>
      <point x="116" y="667"/>
      <point x="125" y="661"/>
      <point x="125" y="642" type="curve"/>
      <point x="235" y="642" type="line"/>
      <point x="235" y="661"/>
      <point x="244" y="667"/>
      <point x="260" y="671" type="curve"/>
      <point x="310" y="680" type="line"/>
      <point x="310" y="700" type="line"/>
      <point x="245" y="700" type="line"/>
    </contour>
    <contour>
      <point x="306" y="341" type="line"/>
      <point x="578" y="646" type="line" smooth="yes"/>
      <point x="586" y="654"/>
      <point x="599" y="669"/>
      <point x="623" y="672" type="curve" smooth="yes"/>
      <point x="682" y="679" type="line"/>
      <point x="682" y="699" type="line"/>
      <point x="648" y="699" type="line" smooth="yes"/>
      <point x="619" y="699"/>
      <point x="584" y="694"/>
      <point x="565" y="694" type="curve" smooth="yes"/>
      <point x="545" y="694"/>
      <point x="510" y="699"/>
      <point x="481" y="699" type="curve" smooth="yes"/>
      <point x="457" y="699" type="line"/>
      <point x="457" y="679" type="line"/>
      <point x="505" y="672" type="line" smooth="yes"/>
      <point x="523" y="669"/>
      <point x="537" y="657"/>
      <point x="528" y="646" type="curve" smooth="yes"/>
      <point x="256" y="341" type="line"/>
    </contour>
    <contour>
      <point x="256" y="341" type="line"/>
      <point x="573" y="0" type="line"/>
      <point x="759" y="0" type="line"/>
      <point x="759" y="28" type="line"/>
      <point x="706" y="38" type="line" smooth="yes"/>
      <point x="685" y="42"/>
      <point x="658" y="63"/>
      <point x="636" y="88" type="curve" smooth="yes"/>
      <point x="354" y="398" type="line"/>
    </contour>
    <component base="SerifCaps" xOffset="50"/>
  </outline>
</glyph>
<glyph name="Q.ss01" format="1">
  <advance width="868"/>
  <outline>
    <contour>
      <point x="749" y="546"/>
      <point x="611" y="709"/>
      <point x="411" y="709" type="curve" smooth="yes"/>
      <point x="210" y="709"/>
      <point x="70" y="545"/>
      <point x="70" y="346" type="curve" smooth="yes"/>
      <point x="70" y="144"/>
      <point x="213" y="-10"/>
      <point x="408" y="-10" type="curve" smooth="yes"/>
      <point x="601" y="-10"/>
      <point x="749" y="142"/>
      <point x="749" y="348" type="curve" smooth="yes"/>
    </contour>
    <contour>
      <point x="184" y="562"/>
      <point x="257" y="663"/>
      <point x="378" y="663" type="curve" smooth="yes"/>
      <point x="550" y="663"/>
      <point x="636" y="461"/>
      <point x="636" y="295" type="curve" smooth="yes"/>
      <point x="636" y="137"/>
      <point x="559" y="37"/>
      <point x="435" y="37" type="curve" smooth="yes"/>
      <point x="261" y="37"/>
      <point x="184" y="232"/>
      <point x="184" y="399" type="curve" smooth="yes"/>
    </contour>
    <contour>
      <point x="493" y="-17" type="line" smooth="yes"/>
      <point x="440" y="2"/>
      <point x="381" y="-2"/>
      <point x="356" y="-14" type="curve" smooth="yes"/>
      <point x="245" y="-66" type="line"/>
      <point x="261" y="-88" type="line"/>
      <point x="290" y="-74"/>
      <point x="349" y="-57"/>
      <point x="409" y="-78" type="curve" smooth="yes"/>
      <point x="585" y="-138" type="line" smooth="yes"/>
      <point x="640" y="-156"/>
      <point x="696" y="-146"/>
      <point x="737" y="-128" type="curve" smooth="yes"/>
      <point x="787" y="-104"/>
      <point x="801" y="-91"/>
      <point x="818" y="-71" type="curve"/>
      <point x="791" y="-61" type="line"/>
      <point x="771" y="-84"/>
      <point x="709" y="-96"/>
      <point x="647" y="-73" type="curve" smooth="yes"/>
    </contour>
  </outline>
</glyph>
<glyph name="R.ss01" format="1">
  <advance width="781"/>
  <outline>
    <contour>
      <point x="235" y="20" type="line"/>
      <point x="235" y="680" type="line"/>
      <point x="125" y="680" type="line"/>
      <point x="125" y="20" type="line"/>
    </contour>
    <contour>
      <point x="380" y="660"/>
      <point x="449" y="601"/>
      <point x="449" y="495" type="curve" smooth="yes"/>
      <point x="449" y="431"/>
      <point x="419" y="355"/>
      <point x="319" y="355" type="curve" smooth="yes"/>
      <point x="226" y="355" type="line"/>
      <point x="226" y="315" type="line"/>
      <point x="339" y="315" type="line" smooth="yes"/>
      <point x="434" y="315"/>
      <point x="561" y="410"/>
      <point x="561" y="538" type="curve" smooth="yes"/>
      <point x="561" y="611"/>
      <point x="520" y="700"/>
      <point x="372" y="700" type="curve" smooth="yes"/>
      <point x="245" y="700" type="line"/>
      <point x="225" y="700"/>
      <point x="199" y="696"/>
      <point x="179" y="696" type="curve"/>
      <point x="159" y="696"/>
      <point x="135" y="700"/>
      <point x="115" y="700" type="curve"/>
      <point x="50" y="700" type="line"/>
      <point x="50" y="680" type="line"/>
      <point x="100" y="671" type="line"/>
      <point x="116" y="667"/>
      <point x="125" y="661"/>
      <point x="125" y="642" type="curve"/>
      <point x="235" y="660" type="line"/>
      <point x="264" y="660" type="line" smooth="yes"/>
    </contour>
    <contour>
      <point x="294" y="337" type="line"/>
      <point x="532" y="0" type="line"/>
      <point x="726" y="0" type="line"/>
      <point x="726" y="28" type="line"/>
      <point x="673" y="38" type="line" smooth="yes"/>
      <point x="652" y="42"/>
      <point x="622" y="62"/>
      <point x="603" y="88" type="curve" smooth="yes"/>
      <point x="424" y="337" type="line"/>
    </contour>
    <component base="SerifCaps" xOffset="50"/>
  </outline>
</glyph>
<glyph name="SerifBottomLeft" format="1">
  <advance width="100"/>
  <outline>
    <contour>
      <point x="59" y="58" type="line"/>
      <point x="0" y="58" type="line"/>
      <point x="0" y="39"/>
      <point x="-9" y="33"/>
      <point x="-25" y="29" type="curve"/>
      <point x="-75" y="20" type="line"/>
      <point x="-75" y="0" type="line"/>
      <point x="0" y="0" type="line"/>
      <point x="20" y="0"/>
      <point x="39" y="4"/>
      <point x="59" y="4" type="curve"/>
    </contour>
  </outline>
</glyph>
<glyph name="SerifBottomRight" format="1">
  <advance width="100"/>
  <outline>
    <contour>
      <point x="175" y="0" type="line"/>
      <point x="175" y="20" type="line"/>
      <point x="125" y="29" type="line"/>
      <point x="109" y="33"/>
      <point x="101" y="39"/>
      <point x="101" y="58" type="curve"/>
      <point x="40" y="58" type="line"/>
      <point x="40" y="4" type="line"/>
      <point x="60" y="4"/>
      <point x="81" y="0"/>
      <point x="101" y="0" type="curve"/>
    </contour>
  </outline>
</glyph>
<glyph name="SerifCaps" format="1">
  <advance width="250"/>
  <outline>
    <contour>
      <point x="65" y="0"/>
      <point x="105" y="4"/>
      <point x="125" y="4" type="curve" smooth="yes"/>
      <point x="145" y="4"/>
      <point x="185" y="0"/>
      <point x="205" y="0" type="curve" smooth="yes"/>
      <point x="250" y="0" type="line"/>
      <point x="250" y="20" type="line"/>
      <point x="200" y="30" type="line" smooth="yes"/>
      <point x="180" y="34"/>
      <point x="175" y="44"/>
      <point x="175" y="58" type="curve"/>
      <point x="75" y="58" type="line"/>
      <point x="75" y="44"/>
      <point x="70" y="34"/>
      <point x="50" y="30" type="curve" smooth="yes"/>
      <point x="0" y="20" type="line"/>
      <point x="0" y="0" type="line"/>
      <point x="45" y="0" type="line" smooth="yes"/>
    </contour>
  </outline>
</glyph>
<glyph name="SerifSpur" format="1">
  <advance width="146"/>
  <outline>
    <contour>
      <point x="116" y="510" type="line"/>
      <point x="0" y="459" type="line"/>
      <point x="0" y="439" type="line"/>
      <point x="36" y="439" type="line"/>
      <point x="47" y="439"/>
      <point x="55" y="431"/>
      <point x="56" y="419" type="curve"/>
      <point x="146" y="420" type="line"/>
      <point x="146" y="510" type="line"/>
    </contour>
  </outline>
</glyph>
<glyph name="Serif_lc" format="1">
  <advance width="220"/>
  <outline>
    <contour>
      <point x="220" y="0" type="line"/>
      <point x="220" y="20" type="line"/>
      <point x="180" y="27" type="line" smooth="yes"/>
      <point x="162" y="31"/>
      <point x="155" y="38"/>
      <point x="155" y="53" type="curve"/>
      <point x="65" y="53" type="line"/>
      <point x="65" y="38"/>
      <point x="58" y="31"/>
      <point x="40" y="27" type="curve" smooth="yes"/>
      <point x="0" y="20" type="line"/>
      <point x="0" y="0" type="line"/>
      <point x="35" y="0" type="line"/>
      <point x="65" y="0"/>
      <point x="90" y="5"/>
      <point x="110" y="5" type="curve"/>
      <point x="130" y="5"/>
      <point x="155" y="0"/>
      <point x="185" y="0" type="curve"/>
    </contour>
  </outline>
</glyph>
<glyph name="Serif_lc_long" format="1">
  <advance width="250"/>
  <outline>
    <contour>
      <point x="250" y="0" type="line"/>
      <point x="250" y="20" type="line"/>
      <point x="190" y="27" type="line"/>
      <point x="169" y="30"/>
      <point x="155" y="37"/>
      <point x="155" y="53" type="curve"/>
      <point x="65" y="53" type="line"/>
      <point x="65" y="37"/>
      <point x="60" y="32"/>
      <point x="40" y="27" type="curve"/>
      <point x="0" y="20" type="line"/>
      <point x="0" y="0" type="line"/>
      <point x="35" y="0" type="line"/>
      <point x="65" y="0"/>
      <point x="90" y="5"/>
      <point x="110" y="5" type="curve"/>
      <point x="130" y="5"/>
      <point x="155" y="0"/>
      <point x="185" y="0" type="curve"/>
    </contour>
  </outline>
</glyph>
<glyph name="a.ss01" format="1">
  <advance width="549"/>
  <outline>
    <contour>
      <point x="331" y="359" type="line"/>
      <point x="331" y="429"/>
      <point x="302" y="442"/>
      <point x="259" y="442" type="curve" smooth="yes"/>
      <point x="228" y="442"/>
      <point x="150" y="442"/>
      <point x="72" y="384" type="curve"/>
      <point x="59" y="402" type="line"/>
      <point x="130" y="479"/>
      <point x="251" y="510"/>
      <point x="317" y="510" type="curve" smooth="yes"/>
      <point x="386" y="510"/>
      <point x="421" y="472"/>
      <point x="421" y="424" type="curve"/>
      <point x="421" y="69" type="line"/>
      <point x="421" y="44"/>
      <point x="433" y="30"/>
      <point x="454" y="30" type="curve"/>
      <point x="461" y="30"/>
      <point x="474" y="38"/>
      <point x="489" y="48" type="curve"/>
      <point x="504" y="29" type="line"/>
      <point x="471" y="7"/>
      <point x="446" y="-11"/>
      <point x="407" y="-11" type="curve" smooth="yes"/>
      <point x="365" y="-11"/>
      <point x="328" y="19"/>
      <point x="331" y="65" type="curve"/>
    </contour>
    <contour>
      <point x="340" y="284" type="line"/>
      <point x="145" y="174" type="line"/>
      <point x="145" y="94"/>
      <point x="203" y="57"/>
      <point x="258" y="59" type="curve"/>
      <point x="346" y="105" type="line"/>
      <point x="346" y="79" type="line"/>
      <point x="197" y="-9" type="line"/>
      <point x="112" y="-9"/>
      <point x="54" y="57"/>
      <point x="50" y="156" type="curve"/>
      <point x="340" y="319" type="line"/>
    </contour>
  </outline>
</glyph>
<glyph name="exclam.ss01" format="1">
  <advance width="190"/>
  <outline>
    <contour>
      <point x="115" y="174" type="line"/>
      <point x="145" y="700" type="line"/>
      <point x="43" y="700" type="line"/>
      <point x="75" y="174" type="line"/>
    </contour>
    <component base="period"/>
  </outline>
</glyph>
<glyph name="f_f" format="1">
  <advance width="785"/>
  <outline>
    <contour>
      <point x="47" y="470" type="line"/>
      <point x="206" y="470" type="line"/>
      <point x="366" y="470" type="line"/>
      <point x="366" y="500" type="line"/>
      <point x="195" y="500" type="line"/>
      <point x="195" y="520" type="line"/>
      <point x="116" y="520" type="line"/>
      <point x="116" y="509"/>
      <point x="107" y="500"/>
      <point x="96" y="500" type="curve" smooth="yes"/>
      <point x="47" y="500" type="line"/>
    </contour>
    <contour>
      <point x="356" y="470" type="line"/>
      <point x="515" y="470" type="line"/>
      <point x="675" y="470" type="line"/>
      <point x="675" y="500" type="line"/>
      <point x="504" y="500" type="line"/>
      <point x="504" y="520" type="line"/>
      <point x="425" y="520" type="line"/>
      <point x="425" y="509"/>
      <point x="416" y="500"/>
      <point x="405" y="500" type="curve" smooth="yes"/>
      <point x="356" y="500" type="line"/>
    </contour>
    <contour>
      <point x="522" y="800"/>
      <point x="425" y="708"/>
      <point x="425" y="585" type="curve" smooth="yes"/>
      <point x="425" y="46" type="line"/>
      <point x="515" y="46" type="line"/>
      <point x="515" y="669" type="line" smooth="yes"/>
      <point x="515" y="714"/>
      <point x="543" y="744"/>
      <point x="585" y="744" type="curve" smooth="yes"/>
      <point x="648" y="744"/>
      <point x="719" y="684"/>
      <point x="744" y="662" type="curve"/>
      <point x="775" y="769" type="line"/>
      <point x="748" y="779"/>
      <point x="700" y="800"/>
      <point x="639" y="800" type="curve" smooth="yes"/>
    </contour>
    <contour>
      <point x="213" y="780"/>
      <point x="116" y="688"/>
      <point x="116" y="565" type="curve" smooth="yes"/>
      <point x="116" y="46" type="line"/>
      <point x="206" y="46" type="line"/>
      <point x="206" y="649" type="line" smooth="yes"/>
      <point x="206" y="694"/>
      <point x="234" y="724"/>
      <point x="296" y="724" type="curve" smooth="yes"/>
      <point x="350" y="724"/>
      <point x="405" y="698"/>
      <point x="445" y="638" type="curve"/>
      <point x="516" y="730" type="line"/>
      <point x="487" y="760"/>
      <point x="413" y="780"/>
      <point x="330" y="780" type="curve" smooth="yes"/>
    </contour>
    <component base="Serif_lc_long" xOffset="360"/>
    <component base="Serif_lc" xOffset="51"/>
  </outline>
</glyph>
<glyph name="f_f_i" format="1">
  <advance width="950"/>
  <outline>
    <contour>
      <point x="47" y="470" type="line"/>
      <point x="206" y="470" type="line"/>
      <point x="366" y="470" type="line"/>
      <point x="366" y="500" type="line"/>
      <point x="195" y="500" type="line"/>
      <point x="195" y="520" type="line"/>
      <point x="116" y="520" type="line"/>
      <point x="116" y="509"/>
      <point x="107" y="500"/>
      <point x="96" y="500" type="curve" smooth="yes"/>
      <point x="47" y="500" type="line"/>
    </contour>
    <contour>
      <point x="213" y="780"/>
      <point x="116" y="688"/>
      <point x="116" y="565" type="curve" smooth="yes"/>
      <point x="116" y="46" type="line"/>
      <point x="206" y="46" type="line"/>
      <point x="206" y="649" type="line" smooth="yes"/>
      <point x="206" y="694"/>
      <point x="234" y="724"/>
      <point x="296" y="724" type="curve" smooth="yes"/>
      <point x="350" y="724"/>
      <point x="405" y="698"/>
      <point x="445" y="638" type="curve"/>
      <point x="516" y="730" type="line"/>
      <point x="487" y="760"/>
      <point x="413" y="780"/>
      <point x="330" y="780" type="curve" smooth="yes"/>
    </contour>
    <component base="f_i" xOffset="306"/>
    <component base="Serif_lc" xOffset="51"/>
  </outline>
</glyph>
<glyph name="f_f_j" format="1">
  <advance width="889"/>
  <outline>
    <contour>
      <point x="50" y="470" type="line"/>
      <point x="209" y="470" type="line"/>
      <point x="369" y="470" type="line"/>
      <point x="369" y="500" type="line"/>
      <point x="198" y="500" type="line"/>
      <point x="198" y="520" type="line"/>
      <point x="119" y="520" type="line"/>
      <point x="119" y="509"/>
      <point x="110" y="500"/>
      <point x="99" y="500" type="curve" smooth="yes"/>
      <point x="50" y="500" type="line"/>
    </contour>
    <contour>
      <point x="227" y="800"/>
      <point x="119" y="674"/>
      <point x="119" y="551" type="curve" smooth="yes"/>
      <point x="119" y="46" type="line"/>
      <point x="209" y="46" type="line"/>
      <point x="209" y="629" type="line" smooth="yes"/>
      <point x="209" y="720"/>
      <point x="239" y="744"/>
      <point x="281" y="744" type="curve" smooth="yes"/>
      <point x="346" y="744"/>
      <point x="425" y="675"/>
      <point x="455" y="638" type="curve"/>
      <point x="520" y="740" type="line"/>
      <point x="500" y="756"/>
      <point x="405" y="800"/>
      <point x="342" y="800" type="curve" smooth="yes"/>
    </contour>
    <component base="f_j" xOffset="309"/>
    <component base="Serif_lc" xOffset="54"/>
  </outline>
</glyph>
<glyph name="f_f_l" format="1">
  <advance width="949"/>
  <outline>
    <contour>
      <point x="50" y="470" type="line"/>
      <point x="209" y="470" type="line"/>
      <point x="369" y="470" type="line"/>
      <point x="369" y="500" type="line"/>
      <point x="198" y="500" type="line"/>
      <point x="198" y="520" type="line"/>
      <point x="119" y="520" type="line"/>
      <point x="119" y="509"/>
      <point x="110" y="500"/>
      <point x="99" y="500" type="curve" smooth="yes"/>
      <point x="50" y="500" type="line"/>
    </contour>
    <contour>
      <point x="216" y="780"/>
      <point x="119" y="688"/>
      <point x="119" y="565" type="curve" smooth="yes"/>
      <point x="119" y="46" type="line"/>
      <point x="209" y="46" type="line"/>
      <point x="209" y="649" type="line" smooth="yes"/>
      <point x="209" y="694"/>
      <point x="237" y="724"/>
      <point x="299" y="724" type="curve" smooth="yes"/>
      <point x="353" y="724"/>
      <point x="408" y="698"/>
      <point x="448" y="638" type="curve"/>
      <point x="519" y="730" type="line"/>
      <point x="490" y="760"/>
      <point x="416" y="780"/>
      <point x="333" y="780" type="curve" smooth="yes"/>
    </contour>
    <component base="Serif_lc" xOffset="54"/>
    <component base="Serif_lc" xOffset="54"/>
    <component base="f_l" xOffset="309"/>
  </outline>
</glyph>
<glyph name="f_i" format="1">
  <advance width="644"/>
  <outline>
    <contour>
      <point x="47" y="470" type="line"/>
      <point x="206" y="470" type="line"/>
      <point x="486" y="470" type="line"/>
      <point x="484" y="500" type="line"/>
      <point x="195" y="500" type="line"/>
      <point x="195" y="520" type="line"/>
      <point x="116" y="520" type="line"/>
      <point x="116" y="509"/>
      <point x="107" y="500"/>
      <point x="96" y="500" type="curve" smooth="yes"/>
      <point x="47" y="500" type="line"/>
    </contour>
    <contour>
      <point x="522" y="46" type="line"/>
      <point x="522" y="480" type="line"/>
      <point x="522" y="520" type="line"/>
      <point x="502" y="520" type="line"/>
      <point x="432" y="500" type="line"/>
      <point x="432" y="492" type="line"/>
      <point x="432" y="46" type="line"/>
    </contour>
    <contour>
      <point x="224" y="800"/>
      <point x="116" y="674"/>
      <point x="116" y="551" type="curve" smooth="yes"/>
      <point x="116" y="46" type="line"/>
      <point x="206" y="46" type="line"/>
      <point x="206" y="629" type="line" smooth="yes"/>
      <point x="206" y="720"/>
      <point x="236" y="744"/>
      <point x="278" y="744" type="curve" smooth="yes"/>
      <point x="343" y="744"/>
      <point x="422" y="675"/>
      <point x="452" y="638" type="curve"/>
      <point x="517" y="740" type="line"/>
      <point x="497" y="756"/>
      <point x="402" y="800"/>
      <point x="339" y="800" type="curve" smooth="yes"/>
    </contour>
    <component base="Serif_lc" xOffset="367"/>
    <component base="Serif_lc" xOffset="51"/>
  </outline>
</glyph>
<glyph name="f_j" format="1">
  <advance width="592"/>
  <outline>
    <contour>
      <point x="47" y="470" type="line"/>
      <point x="206" y="470" type="line"/>
      <point x="486" y="470" type="line"/>
      <point x="484" y="500" type="line"/>
      <point x="195" y="500" type="line"/>
      <point x="195" y="520" type="line"/>
      <point x="116" y="520" type="line"/>
      <point x="116" y="509"/>
      <point x="107" y="500"/>
      <point x="96" y="500" type="curve" smooth="yes"/>
      <point x="47" y="500" type="line"/>
    </contour>
    <contour>
      <point x="210" y="800"/>
      <point x="116" y="708"/>
      <point x="116" y="585" type="curve" smooth="yes"/>
      <point x="116" y="46" type="line"/>
      <point x="206" y="46" type="line"/>
      <point x="206" y="669" type="line" smooth="yes"/>
      <point x="206" y="714"/>
      <point x="235" y="744"/>
      <point x="293" y="744" type="curve" smooth="yes"/>
      <point x="355" y="744"/>
      <point x="402" y="710"/>
      <point x="417" y="654" type="curve"/>
      <point x="530" y="694" type="line"/>
      <point x="505" y="760"/>
      <point x="418" y="800"/>
      <point x="335" y="800" type="curve" smooth="yes"/>
    </contour>
    <contour>
      <point x="508" y="610"/>
      <point x="535" y="636"/>
      <point x="535" y="670" type="curve" smooth="yes"/>
      <point x="535" y="703"/>
      <point x="508" y="730"/>
      <point x="475" y="730" type="curve" smooth="yes"/>
      <point x="442" y="730"/>
      <point x="415" y="703"/>
      <point x="415" y="670" type="curve" smooth="yes"/>
      <point x="415" y="636"/>
      <point x="442" y="610"/>
      <point x="475" y="610" type="curve" smooth="yes"/>
    </contour>
    <contour>
      <point x="522" y="46" type="line"/>
      <point x="522" y="480" type="line"/>
      <point x="522" y="520" type="line"/>
      <point x="502" y="520" type="line"/>
      <point x="432" y="500" type="line"/>
      <point x="432" y="492" type="line"/>
      <point x="432" y="46" type="line"/>
    </contour>
    <contour>
      <point x="432" y="-104" type="line" smooth="yes"/>
      <point x="432" y="-206"/>
      <point x="373" y="-229"/>
      <point x="353" y="-241" type="curve"/>
      <point x="367" y="-260" type="line"/>
      <point x="389" y="-249"/>
      <point x="522" y="-186"/>
      <point x="522" y="-64" type="curve" smooth="yes"/>
      <point x="522" y="457" type="line"/>
      <point x="432" y="457" type="line"/>
    </contour>
    <component base="Serif_lc" xOffset="51"/>
  </outline>
</glyph>
<glyph name="f_l" format="1">
  <advance width="637"/>
  <outline>
    <contour>
      <point x="47" y="470" type="line"/>
      <point x="206" y="470" type="line"/>
      <point x="366" y="470" type="line"/>
      <point x="366" y="500" type="line"/>
      <point x="195" y="500" type="line"/>
      <point x="195" y="520" type="line"/>
      <point x="116" y="520" type="line"/>
      <point x="116" y="509"/>
      <point x="107" y="500"/>
      <point x="96" y="500" type="curve" smooth="yes"/>
      <point x="47" y="500" type="line"/>
    </contour>
    <contour>
      <point x="447" y="707" type="line"/>
      <point x="447" y="697" type="line"/>
      <point x="447" y="46" type="line"/>
      <point x="537" y="46" type="line"/>
      <point x="537" y="680" type="line"/>
      <point x="537" y="800" type="line"/>
      <point x="517" y="800" type="line"/>
      <point x="421" y="749" type="line"/>
    </contour>
    <contour>
      <point x="224" y="800"/>
      <point x="116" y="674"/>
      <point x="116" y="551" type="curve" smooth="yes"/>
      <point x="116" y="46" type="line"/>
      <point x="206" y="46" type="line"/>
      <point x="206" y="629" type="line" smooth="yes"/>
      <point x="206" y="720"/>
      <point x="236" y="744"/>
      <point x="278" y="744" type="curve" smooth="yes"/>
      <point x="343" y="744"/>
      <point x="422" y="675"/>
      <point x="452" y="638" type="curve"/>
      <point x="517" y="740" type="line"/>
      <point x="497" y="756"/>
      <point x="402" y="800"/>
      <point x="339" y="800" type="curve" smooth="yes"/>
    </contour>
    <component base="Serif_lc" xOffset="382"/>
    <component base="Serif_lc" xOffset="51"/>
  </outline>
</glyph>
<glyph name="five.osf" format="1">
  <advance width="599"/>
  <outline>
    <contour>
      <point x="111" y="-229"/>
      <point x="198" y="-260"/>
      <point x="267" y="-260" type="curve" smooth="yes"/>
      <point x="430" y="-260"/>
      <point x="539" y="-154"/>
      <point x="539" y="6" type="curve" smooth="yes"/>
      <point x="539" y="164"/>
      <point x="398" y="270"/>
      <point x="186" y="270" type="curve"/>
      <point x="138" y="226" type="line"/>
      <point x="308" y="226"/>
      <point x="432" y="130"/>
      <point x="432" y="-14" type="curve" smooth="yes"/>
      <point x="432" y="-141"/>
      <point x="363" y="-225"/>
      <point x="274" y="-225" type="curve" smooth="yes"/>
      <point x="214" y="-225"/>
      <point x="145" y="-178"/>
      <point x="101" y="-107" type="curve"/>
      <point x="50" y="-182" type="line"/>
    </contour>
    <contour>
      <point x="174" y="226" type="line"/>
      <point x="187" y="262" type="line"/>
      <point x="223" y="420" type="line"/>
      <point x="497" y="420" type="line"/>
      <point x="497" y="500" type="line"/>
      <point x="181" y="500" type="line"/>
      <point x="134" y="226" type="line"/>
    </contour>
  </outline>
</glyph>
<glyph name="four.osf" format="1">
  <advance width="599"/>
  <outline>
    <contour>
      <point x="456" y="-250" type="line"/>
      <point x="456" y="491" type="line"/>
      <point x="346" y="361" type="line"/>
      <point x="346" y="-250" type="line"/>
    </contour>
    <contour>
      <point x="456" y="510" type="line"/>
      <point x="424" y="510" type="line"/>
      <point x="50" y="63" type="line" smooth="yes"/>
      <point x="50" y="0" type="line"/>
      <point x="79" y="41" type="line"/>
      <point x="456" y="487" type="line"/>
    </contour>
    <contour>
      <point x="50" y="39" type="line"/>
      <point x="50" y="0" type="line"/>
      <point x="539" y="0" type="line"/>
      <point x="539" y="60" type="line"/>
      <point x="80" y="60" type="line"/>
    </contour>
  </outline>
</glyph>
<glyph name="h.ss01" format="1">
  <advance width="624"/>
  <outline>
    <contour>
      <point x="101" y="46" type="line"/>
      <point x="191" y="46" type="line"/>
      <point x="191" y="727" type="line"/>
      <point x="101" y="727" type="line"/>
    </contour>
    <contour>
      <point x="228" y="429"/>
      <point x="272" y="460"/>
      <point x="322" y="460" type="curve" smooth="yes"/>
      <point x="383" y="460"/>
      <point x="436" y="429"/>
      <point x="436" y="357" type="curve" smooth="yes"/>
      <point x="436" y="46" type="line"/>
      <point x="526" y="46" type="line"/>
      <point x="526" y="377" type="line" smooth="yes"/>
      <point x="526" y="464"/>
      <point x="473" y="510"/>
      <point x="373" y="510" type="curve" smooth="yes"/>
      <point x="282" y="510"/>
      <point x="226" y="473"/>
      <point x="178" y="427" type="curve"/>
      <point x="178" y="381" type="line"/>
    </contour>
    <component base="SerifSpur" xOffset="45" yOffset="290"/>
    <component base="Serif_lc" xOffset="36"/>
    <component base="Serif_lc" xOffset="369"/>
  </outline>
</glyph>
<glyph name="m.ss01" format="1">
  <advance width="942"/>
  <outline>
    <contour>
      <point x="126" y="46" type="line"/>
      <point x="216" y="46" type="line"/>
      <point x="216" y="457" type="line"/>
      <point x="126" y="457" type="line"/>
    </contour>
    <contour>
      <point x="231" y="428"/>
      <point x="275" y="460"/>
      <point x="325" y="460" type="curve" smooth="yes"/>
      <point x="386" y="460"/>
      <point x="439" y="429"/>
      <point x="439" y="367" type="curve" smooth="yes"/>
      <point x="439" y="46" type="line"/>
      <point x="529" y="46" type="line"/>
      <point x="529" y="387" type="line" smooth="yes"/>
      <point x="529" y="464"/>
      <point x="476" y="510"/>
      <point x="376" y="510" type="curve" smooth="yes"/>
      <point x="285" y="510"/>
      <point x="229" y="473"/>
      <point x="181" y="427" type="curve"/>
      <point x="181" y="381" type="line"/>
    </contour>
    <contour>
      <point x="544" y="427"/>
      <point x="588" y="459"/>
      <point x="638" y="459" type="curve" smooth="yes"/>
      <point x="699" y="459"/>
      <point x="752" y="428"/>
      <point x="752" y="366" type="curve" smooth="yes"/>
      <point x="752" y="45" type="line"/>
      <point x="842" y="45" type="line"/>
      <point x="842" y="386" type="line" smooth="yes"/>
      <point x="842" y="463"/>
      <point x="789" y="509"/>
      <point x="689" y="509" type="curve" smooth="yes"/>
      <point x="598" y="509"/>
      <point x="542" y="472"/>
      <point x="494" y="426" type="curve"/>
      <point x="494" y="380" type="line"/>
    </contour>
    <component base="Serif_lc" xOffset="61"/>
    <component base="SerifSpur" xOffset="70"/>
    <component base="Serif_lc" xOffset="374"/>
    <component base="Serif_lc" xOffset="687"/>
  </outline>
</glyph>
<glyph name="n.ss01" format="1">
  <advance width="646"/>
  <outline>
    <contour>
      <point x="123" y="457" type="line"/>
      <point x="123" y="46" type="line"/>
      <point x="213" y="46" type="line"/>
      <point x="213" y="457" type="line"/>
    </contour>
    <contour>
      <point x="248" y="429"/>
      <point x="292" y="460"/>
      <point x="342" y="460" type="curve" smooth="yes"/>
      <point x="403" y="460"/>
      <point x="456" y="429"/>
      <point x="456" y="357" type="curve" smooth="yes"/>
      <point x="456" y="46" type="line"/>
      <point x="546" y="46" type="line"/>
      <point x="546" y="377" type="line" smooth="yes"/>
      <point x="546" y="464"/>
      <point x="493" y="510"/>
      <point x="393" y="510" type="curve" smooth="yes"/>
      <point x="302" y="510"/>
      <point x="246" y="473"/>
      <point x="198" y="427" type="curve"/>
      <point x="198" y="381" type="line"/>
    </contour>
    <component base="Serif_lc" xOffset="58"/>
    <component base="SerifSpur" xOffset="67"/>
    <component base="Serif_lc" xOffset="391"/>
  </outline>
</glyph>
<glyph name="one.osf" format="1">
  <advance width="434"/>
  <outline>
    <contour>
      <point x="265" y="20" type="line"/>
      <point x="265" y="527" type="line"/>
      <point x="170" y="527" type="line"/>
      <point x="170" y="20" type="line"/>
    </contour>
    <contour>
      <point x="367" y="0" type="line"/>
      <point x="367" y="20" type="line"/>
      <point x="291" y="29" type="line" smooth="yes"/>
      <point x="276" y="31"/>
      <point x="265" y="42"/>
      <point x="265" y="58" type="curve"/>
      <point x="170" y="58" type="line"/>
      <point x="170" y="43"/>
      <point x="160" y="31"/>
      <point x="145" y="29" type="curve" smooth="yes"/>
      <point x="67" y="20" type="line"/>
      <point x="67" y="0" type="line"/>
      <point x="137" y="0" type="line" smooth="yes"/>
      <point x="157" y="0"/>
      <point x="197" y="4"/>
      <point x="217" y="4" type="curve" smooth="yes"/>
      <point x="237" y="4"/>
      <point x="277" y="0"/>
      <point x="297" y="0" type="curve" smooth="yes"/>
    </contour>
    <contour>
      <point x="67" y="570" type="line"/>
      <point x="67" y="550" type="line"/>
      <point x="143" y="541" type="line" smooth="yes"/>
      <point x="158" y="539"/>
      <point x="169" y="528"/>
      <point x="169" y="512" type="curve"/>
      <point x="264" y="512" type="line"/>
      <point x="264" y="527"/>
      <point x="274" y="539"/>
      <point x="289" y="541" type="curve" smooth="yes"/>
      <point x="367" y="550" type="line"/>
      <point x="367" y="570" type="line"/>
      <point x="297" y="570" type="line" smooth="yes"/>
      <point x="277" y="570"/>
      <point x="237" y="566"/>
      <point x="217" y="566" type="curve" smooth="yes"/>
      <point x="197" y="566"/>
      <point x="157" y="570"/>
      <point x="137" y="570" type="curve" smooth="yes"/>
    </contour>
  </outline>
</glyph>
<glyph name="seven.osf" format="1">
  <advance width="581"/>
  <outline>
    <contour>
      <point x="77" y="570" type="line"/>
      <point x="50" y="402" type="line"/>
      <point x="70" y="399" type="line"/>
      <point x="93" y="450" type="line" smooth="yes"/>
      <point x="101" y="468"/>
      <point x="116" y="480"/>
      <point x="130" y="480" type="curve" smooth="yes"/>
      <point x="452" y="480" type="line"/>
      <point x="518" y="570" type="line"/>
      <point x="423" y="570" type="line"/>
    </contour>
    <contour>
      <point x="146" y="-180" type="line"/>
      <point x="241" y="-180" type="line"/>
      <point x="531" y="570" type="line"/>
      <point x="481" y="570" type="line"/>
    </contour>
  </outline>
</glyph>
<glyph name="six.osf" format="1">
  <advance width="582"/>
  <outline>
    <contour>
      <point x="163" y="110"/>
      <point x="217" y="25"/>
      <point x="297" y="25" type="curve" smooth="yes"/>
      <point x="353" y="25"/>
      <point x="411" y="68"/>
      <point x="411" y="177" type="curve" smooth="yes"/>
      <point x="411" y="275"/>
      <point x="364" y="332"/>
      <point x="297" y="332" type="curve" smooth="yes"/>
      <point x="277" y="332"/>
      <point x="261" y="329"/>
      <point x="238" y="318" type="curve"/>
      <point x="231" y="320" type="line"/>
      <point x="236" y="333"/>
      <point x="241" y="344"/>
      <point x="254" y="355" type="curve"/>
      <point x="278" y="365"/>
      <point x="302" y="370"/>
      <point x="338" y="370" type="curve" smooth="yes"/>
      <point x="441" y="370"/>
      <point x="514" y="313"/>
      <point x="514" y="203" type="curve" smooth="yes"/>
      <point x="514" y="72"/>
      <point x="410" y="-10"/>
      <point x="285" y="-10" type="curve" smooth="yes"/>
      <point x="145" y="-10"/>
      <point x="60" y="91"/>
      <point x="60" y="238" type="curve" smooth="yes"/>
      <point x="60" y="455"/>
      <point x="245" y="618"/>
      <point x="502" y="672" type="curve"/>
      <point x="522" y="647" type="line"/>
      <point x="316" y="576"/>
      <point x="163" y="425"/>
      <point x="163" y="227" type="curve" smooth="yes"/>
    </contour>
  </outline>
</glyph>
<glyph name="t.ss01" format="1">
  <advance width="420"/>
  <outline>
    <contour>
      <point x="109" y="105" type="line" smooth="yes"/>
      <point x="109" y="24"/>
      <point x="149" y="-13"/>
      <point x="219" y="-12" type="curve" smooth="yes"/>
      <point x="292" y="-11"/>
      <point x="346" y="38"/>
      <point x="385" y="70" type="curve"/>
      <point x="370" y="89" type="line"/>
      <point x="330" y="62"/>
      <point x="306" y="44"/>
      <point x="271" y="44" type="curve" smooth="yes"/>
      <point x="228" y="44"/>
      <point x="199" y="74"/>
      <point x="199" y="145" type="curve" smooth="yes"/>
      <point x="199" y="500" type="line"/>
      <point x="109" y="500" type="line"/>
    </contour>
    <contour>
      <point x="40" y="470" type="line"/>
      <point x="369" y="470" type="line"/>
      <point x="369" y="500" type="line"/>
      <point x="198" y="500" type="line"/>
      <point x="198" y="662" type="line"/>
      <point x="177" y="662" type="line"/>
      <point x="176" y="651"/>
      <point x="110" y="501"/>
      <point x="99" y="500" type="curve"/>
      <point x="40" y="500" type="line"/>
    </contour>
  </outline>
</glyph>
<glyph name="three.osf" format="1">
  <advance width="561"/>
  <outline>
    <contour>
      <point x="157" y="143" type="line"/>
      <point x="292" y="153"/>
      <point x="376" y="96"/>
      <point x="376" y="-21" type="curve" smooth="yes"/>
      <point x="376" y="-134"/>
      <point x="312" y="-225"/>
      <point x="223" y="-225" type="curve" smooth="yes"/>
      <point x="191" y="-225"/>
      <point x="143" y="-205"/>
      <point x="102" y="-175" type="curve"/>
      <point x="46" y="-232" type="line"/>
      <point x="71" y="-249"/>
      <point x="115" y="-260"/>
      <point x="158" y="-260" type="curve" smooth="yes"/>
      <point x="361" y="-260"/>
      <point x="496" y="-143"/>
      <point x="496" y="5" type="curve" smooth="yes"/>
      <point x="496" y="124"/>
      <point x="396" y="188"/>
      <point x="224" y="178" type="curve" smooth="yes"/>
      <point x="221" y="178"/>
      <point x="203" y="176"/>
      <point x="150" y="176" type="curve"/>
    </contour>
    <contour>
      <point x="205" y="510"/>
      <point x="132" y="443"/>
      <point x="74" y="347" type="curve"/>
      <point x="89" y="327" type="line"/>
      <point x="152" y="407"/>
      <point x="210" y="452"/>
      <point x="268" y="452" type="curve" smooth="yes"/>
      <point x="319" y="452"/>
      <point x="347" y="416"/>
      <point x="347" y="354" type="curve" smooth="yes"/>
      <point x="347" y="287"/>
      <point x="315" y="185"/>
      <point x="150" y="175" type="curve"/>
      <point x="157" y="143" type="line"/>
      <point x="322" y="153"/>
      <point x="467" y="276"/>
      <point x="467" y="382" type="curve" smooth="yes"/>
      <point x="467" y="453"/>
      <point x="401" y="510"/>
      <point x="307" y="510" type="curve" smooth="yes"/>
    </contour>
  </outline>
</glyph>
<glyph name="two.osf" format="1">
  <advance width="600"/>
  <outline>
    <contour>
      <point x="204" y="570"/>
      <point x="128" y="509"/>
      <point x="76" y="417" type="curve"/>
      <point x="101" y="397" type="line"/>
      <point x="150" y="461"/>
      <point x="201" y="512"/>
      <point x="267" y="512" type="curve" smooth="yes"/>
      <point x="318" y="512"/>
      <point x="364" y="481"/>
      <point x="364" y="399" type="curve" smooth="yes"/>
      <point x="364" y="259"/>
      <point x="231" y="195"/>
      <point x="68" y="12" type="curve"/>
      <point x="68" y="0" type="line"/>
      <point x="85" y="0" type="line"/>
      <point x="287" y="176"/>
      <point x="464" y="250"/>
      <point x="464" y="419" type="curve" smooth="yes"/>
      <point x="464" y="523"/>
      <point x="398" y="570"/>
      <point x="307" y="570" type="curve" smooth="yes"/>
    </contour>
    <contour>
      <point x="521" y="0" type="line"/>
      <point x="548" y="158" type="line"/>
      <point x="528" y="161" type="line"/>
      <point x="505" y="110" type="line" smooth="yes"/>
      <point x="497" y="92"/>
      <point x="482" y="72"/>
      <point x="468" y="72" type="curve" smooth="yes"/>
      <point x="167" y="69" type="line"/>
      <point x="80" y="0" type="line"/>
      <point x="175" y="0" type="line"/>
    </contour>
  </outline>
</glyph>
<glyph name="u.ss01" format="1">
  <advance width="625"/>
  <outline>
    <contour>
      <point x="590" y="31" type="line"/>
      <point x="590" y="51" type="line"/>
      <point x="544" y="51" type="line" smooth="yes"/>
      <point x="533" y="51"/>
      <point x="524" y="59"/>
      <point x="524" y="71" type="curve"/>
      <point x="524" y="454" type="line"/>
      <point x="434" y="454" type="line"/>
      <point x="434" y="70" type="line"/>
      <point x="434" y="-10" type="line"/>
    </contour>
    <contour>
      <point x="399" y="71"/>
      <point x="355" y="40"/>
      <point x="305" y="40" type="curve" smooth="yes"/>
      <point x="244" y="40"/>
      <point x="191" y="71"/>
      <point x="191" y="143" type="curve" smooth="yes"/>
      <point x="191" y="454" type="line"/>
      <point x="101" y="454" type="line"/>
      <point x="101" y="123" type="line" smooth="yes"/>
      <point x="101" y="36"/>
      <point x="154" y="-10"/>
      <point x="254" y="-10" type="curve" smooth="yes"/>
      <point x="345" y="-10"/>
      <point x="401" y="27"/>
      <point x="449" y="73" type="curve"/>
      <point x="449" y="119" type="line"/>
    </contour>
    <component base="SerifSpur" xOffset="45" yOffset="-2"/>
    <component base="SerifSpur" xOffset="378" yOffset="-2"/>
  </outline>
</glyph>
<glyph name="y.ss01" format="1">
  <advance width="654"/>
  <outline>
    <contour>
      <point x="249" y="-214" type="line"/>
      <point x="209" y="-214"/>
      <point x="173" y="-167"/>
      <point x="136" y="-112" type="curve"/>
      <point x="95" y="-209" type="line"/>
      <point x="129" y="-240"/>
      <point x="174" y="-260"/>
      <point x="229" y="-260" type="curve"/>
    </contour>
    <contour>
      <point x="79" y="473" type="line" smooth="yes"/>
      <point x="91" y="470"/>
      <point x="102" y="460"/>
      <point x="108" y="447" type="curve" smooth="yes"/>
      <point x="298" y="-10" type="line"/>
      <point x="206" y="-235" type="line"/>
      <point x="240" y="-235" type="line"/>
      <point x="338" y="-10" type="line"/>
      <point x="526" y="447" type="line" smooth="yes"/>
      <point x="532" y="461"/>
      <point x="546" y="471"/>
      <point x="561" y="473" type="curve" smooth="yes"/>
      <point x="610" y="480" type="line"/>
      <point x="610" y="500" type="line"/>
      <point x="596" y="500" type="line" smooth="yes"/>
      <point x="567" y="500"/>
      <point x="532" y="495"/>
      <point x="513" y="495" type="curve" smooth="yes"/>
      <point x="493" y="495"/>
      <point x="469" y="500"/>
      <point x="440" y="500" type="curve" smooth="yes"/>
      <point x="409" y="500" type="line"/>
      <point x="409" y="480" type="line"/>
      <point x="464" y="473" type="line" smooth="yes"/>
      <point x="484" y="470"/>
      <point x="493" y="460"/>
      <point x="488" y="447" type="curve" smooth="yes"/>
      <point x="345" y="100" type="line"/>
      <point x="201" y="447" type="line" smooth="yes"/>
      <point x="196" y="460"/>
      <point x="206" y="470"/>
      <point x="225" y="473" type="curve" smooth="yes"/>
      <point x="264" y="480" type="line"/>
      <point x="264" y="500" type="line"/>
      <point x="230" y="500" type="line" smooth="yes"/>
      <point x="201" y="500"/>
      <point x="166" y="495"/>
      <point x="147" y="495" type="curve" smooth="yes"/>
      <point x="127" y="495"/>
      <point x="108" y="500"/>
      <point x="79" y="500" type="curve" smooth="yes"/>
      <point x="45" y="500" type="line"/>
      <point x="45" y="480" type="line"/>
    </contour>
  </outline>
</glyph>
<glyph name="zero.osf" format="1">
  <advance width="600"/>
  <outline>
    <contour>
      <point x="461" y="-10"/>
      <point x="565" y="106"/>
      <point x="565" y="280" type="curve" smooth="yes"/>
      <point x="565" y="454"/>
      <point x="461" y="570"/>
      <point x="306" y="570" type="curve" smooth="yes"/>
      <point x="151" y="570"/>
      <point x="47" y="454"/>
      <point x="47" y="280" type="curve" smooth="yes"/>
      <point x="47" y="106"/>
      <point x="151" y="-10"/>
      <point x="306" y="-10" type="curve" smooth="yes"/>
    </contour>
    <contour>
      <point x="200" y="25"/>
      <point x="139" y="176"/>
      <point x="139" y="318" type="curve" smooth="yes"/>
      <point x="139" y="442"/>
      <point x="190" y="535"/>
      <point x="293" y="535" type="curve" smooth="yes"/>
      <point x="412" y="535"/>
      <point x="473" y="382"/>
      <point x="473" y="239" type="curve" smooth="yes"/>
      <point x="473" y="118"/>
      <point x="423" y="25"/>
      <point x="319" y="25" type="curve" smooth="yes"/>
    </contour>
  </outline>
</glyph>
